# Blender 3.1.0
# www.blender.org
mtllib cornell_box_Custom_2.mtl
o Plane
v -2.000000 -2.000000 0.000000
v 2.000000 -2.000000 0.000000
v -2.000000 2.000000 0.000000
v 2.000000 2.000000 0.000000
v -2.000000 -2.000000 0.000000
v 2.000000 -2.000000 0.000000
v -2.000000 2.000000 0.000000
v 2.000000 2.000000 0.000000
v -2.000000 -2.000000 4.000000
v 2.000000 -2.000000 4.000000
v -0.400000 0.400000 4.000000
v 0.400000 0.400000 4.000000
v -1.324264 0.265153 0.000000
v -1.324264 0.265153 2.489266
v -1.634847 1.424264 0.000000
v -1.634847 1.424264 2.489266
v -0.165153 0.575736 0.000000
v -0.165153 0.575736 2.489266
v -0.475736 1.734847 0.000000
v -0.475736 1.734847 2.489266
v -2.000000 2.000000 4.000000
v 0.400000 -0.400000 4.000000
v -0.400000 -0.400000 4.000000
v 2.000000 2.000000 4.000000
v 0.500000 -0.829296 1.738293
v 0.500000 -0.665152 1.688501
v 0.500000 -0.513876 1.607642
v 0.500000 -0.381282 1.498825
v 0.500000 -0.272464 1.366230
v 0.500000 -0.191605 1.214954
v 0.500000 -0.141813 1.050810
v 0.500000 -0.272464 0.393982
v 0.500000 -0.381282 0.261388
v 0.500000 -0.513876 0.152570
v 0.533303 -0.832576 1.738293
v 0.565326 -0.671586 1.688501
v 0.594838 -0.523217 1.607642
v 0.620706 -0.393170 1.498825
v 0.641935 -0.286443 1.366230
v 0.657710 -0.207139 1.214954
v 0.667424 -0.158303 1.050810
v 0.670704 -0.141813 0.880106
v 0.667424 -0.158303 0.709402
v 0.657710 -0.207138 0.545258
v 0.641935 -0.286443 0.393982
v 0.620706 -0.393170 0.261388
v 0.594838 -0.523217 0.152570
v 0.565326 -0.671586 0.071711
v 0.533303 -0.832576 0.021919
v 0.565326 -0.842290 1.738293
v 0.628141 -0.690641 1.688501
v 0.686032 -0.550880 1.607642
v 0.736773 -0.428379 1.498825
v 0.778416 -0.327845 1.366230
v 0.809359 -0.253141 1.214954
v 0.828414 -0.207139 1.050810
v 0.834848 -0.191606 0.880106
v 0.828414 -0.207139 0.709402
v 0.809359 -0.253141 0.545258
v 0.778416 -0.327845 0.393982
v 0.736773 -0.428379 0.261388
v 0.686031 -0.550880 0.152570
v 0.628141 -0.690641 0.071711
v 0.565326 -0.842290 0.021919
v 0.594838 -0.858065 1.738293
v 0.686032 -0.721584 1.688501
v 0.770076 -0.595803 1.607642
v 0.843741 -0.485554 1.498825
v 0.904197 -0.395076 1.366230
v 0.949120 -0.327845 1.214954
v 0.976783 -0.286443 1.050810
v 0.986124 -0.272464 0.880106
v 0.976783 -0.286443 0.709402
v 0.949120 -0.327844 0.545258
v 0.904197 -0.395076 0.393982
v 0.843741 -0.485554 0.261388
v 0.770076 -0.595803 0.152570
v 0.686032 -0.721584 0.071711
v 0.594838 -0.858065 0.021919
v 0.620706 -0.879294 1.738293
v 0.736773 -0.763227 1.688501
v 0.843741 -0.656258 1.607642
v 0.937500 -0.562500 1.498825
v 1.014445 -0.485555 1.366230
v 1.071621 -0.428379 1.214954
v 1.106830 -0.393170 1.050810
v 1.118718 -0.381282 0.880106
v 1.106830 -0.393170 0.709402
v 1.071621 -0.428379 0.545258
v 1.014446 -0.485555 0.393982
v 0.937500 -0.562500 0.261388
v 0.843741 -0.656258 0.152570
v 0.736773 -0.763227 0.071711
v 0.620706 -0.879294 0.021919
v 0.641935 -0.905162 1.738293
v 0.778416 -0.813968 1.688501
v 0.904197 -0.729924 1.607642
v 1.014446 -0.656258 1.498825
v 1.104924 -0.595803 1.366230
v 1.172155 -0.550880 1.214954
v 1.213556 -0.523217 1.050810
v 1.227536 -0.513876 0.880106
v 1.213556 -0.523217 0.709402
v 1.172156 -0.550880 0.545258
v 1.104924 -0.595803 0.393982
v 1.014446 -0.656258 0.261388
v 0.904197 -0.729924 0.152570
v 0.778416 -0.813968 0.071711
v 0.641935 -0.905162 0.021919
v 0.657710 -0.934674 1.738293
v 0.809359 -0.871859 1.688501
v 0.949120 -0.813969 1.607642
v 1.071621 -0.763227 1.498825
v 1.172155 -0.721584 1.366230
v 1.246859 -0.690641 1.214954
v 1.292861 -0.671586 1.050810
v 1.308394 -0.665152 0.880106
v 1.292861 -0.671586 0.709402
v 1.246859 -0.690641 0.545258
v 1.172155 -0.721584 0.393982
v 1.071621 -0.763227 0.261388
v 0.949120 -0.813969 0.152570
v 0.809359 -0.871859 0.071711
v 0.657710 -0.934674 0.021919
v 0.667424 -0.966697 1.738293
v 0.828414 -0.934675 1.688501
v 0.976783 -0.905162 1.607642
v 1.106830 -0.879294 1.498825
v 1.213556 -0.858065 1.366230
v 1.292861 -0.842290 1.214954
v 1.341697 -0.832576 1.050810
v 1.358187 -0.829296 0.880106
v 1.341697 -0.832576 0.709402
v 1.292861 -0.842290 0.545258
v 1.213556 -0.858065 0.393982
v 1.106830 -0.879294 0.261388
v 0.976783 -0.905162 0.152570
v 0.828414 -0.934675 0.071711
v 0.667424 -0.966697 0.021919
v 0.670704 -1.000000 1.738293
v 0.834848 -1.000000 1.688501
v 0.986124 -1.000000 1.607642
v 1.118718 -1.000000 1.498825
v 1.227536 -1.000000 1.366230
v 1.308394 -1.000000 1.214954
v 1.358187 -1.000000 1.050810
v 1.375000 -1.000000 0.880106
v 1.358187 -1.000000 0.709402
v 1.308394 -1.000000 0.545258
v 1.227536 -1.000000 0.393982
v 1.118718 -1.000000 0.261388
v 0.986124 -1.000000 0.152570
v 0.834848 -1.000000 0.071711
v 0.670704 -1.000000 0.021919
v 0.667424 -1.033303 1.738293
v 0.828414 -1.065326 1.688501
v 0.976783 -1.094838 1.607642
v 1.106830 -1.120706 1.498825
v 1.213556 -1.141935 1.366230
v 1.292861 -1.157710 1.214954
v 1.341697 -1.167424 1.050810
v 1.358187 -1.170704 0.880106
v 1.341697 -1.167424 0.709402
v 1.292861 -1.157710 0.545258
v 1.213556 -1.141935 0.393982
v 1.106830 -1.120706 0.261388
v 0.976783 -1.094838 0.152570
v 0.828414 -1.065326 0.071711
v 0.667424 -1.033303 0.021919
v 0.657710 -1.065326 1.738293
v 0.809359 -1.128141 1.688501
v 0.949120 -1.186032 1.607642
v 1.071621 -1.236773 1.498825
v 1.172155 -1.278416 1.366230
v 1.246859 -1.309359 1.214954
v 1.292861 -1.328414 1.050810
v 1.308394 -1.334848 0.880106
v 1.292861 -1.328414 0.709402
v 1.246859 -1.309359 0.545258
v 1.172155 -1.278416 0.393982
v 1.071621 -1.236773 0.261388
v 0.949120 -1.186032 0.152570
v 0.809359 -1.128141 0.071711
v 0.657710 -1.065326 0.021919
v 0.641935 -1.094838 1.738293
v 0.778416 -1.186032 1.688501
v 0.904197 -1.270076 1.607642
v 1.014445 -1.343742 1.498825
v 1.104924 -1.404197 1.366230
v 1.172155 -1.449120 1.214954
v 1.213556 -1.476783 1.050810
v 1.227535 -1.486124 0.880106
v 1.213556 -1.476783 0.709402
v 1.172155 -1.449120 0.545258
v 1.104924 -1.404197 0.393982
v 1.014445 -1.343742 0.261388
v 0.904197 -1.270076 0.152570
v 0.778416 -1.186032 0.071711
v 0.641935 -1.094838 0.021919
v 0.620706 -1.120706 1.738293
v 0.736773 -1.236773 1.688501
v 0.843741 -1.343742 1.607642
v 0.937500 -1.437500 1.498825
v 1.014445 -1.514445 1.366230
v 1.071621 -1.571621 1.214954
v 1.106830 -1.606830 1.050810
v 1.118718 -1.618718 0.880106
v 1.106830 -1.606830 0.709402
v 1.071621 -1.571621 0.545258
v 1.014445 -1.514445 0.393982
v 0.937500 -1.437500 0.261388
v 0.843741 -1.343742 0.152570
v 0.736773 -1.236773 0.071711
v 0.620706 -1.120706 0.021919
v 0.594838 -1.141935 1.738293
v 0.686031 -1.278416 1.688501
v 0.770076 -1.404197 1.607642
v 0.843741 -1.514446 1.498825
v 0.904197 -1.604924 1.366230
v 0.949120 -1.672155 1.214954
v 0.976783 -1.713556 1.050810
v 0.986123 -1.727536 0.880106
v 0.976783 -1.713556 0.709402
v 0.949120 -1.672156 0.545258
v 0.904197 -1.604924 0.393982
v 0.843741 -1.514446 0.261388
v 0.770076 -1.404197 0.152570
v 0.686032 -1.278416 0.071711
v 0.594838 -1.141935 0.021919
v 0.565325 -1.157710 1.738293
v 0.628141 -1.309359 1.688501
v 0.686031 -1.449120 1.607642
v 0.736773 -1.571621 1.498825
v 0.778416 -1.672155 1.366230
v 0.809359 -1.746859 1.214954
v 0.828414 -1.792861 1.050810
v 0.834848 -1.808394 0.880106
v 0.828414 -1.792861 0.709402
v 0.809359 -1.746859 0.545258
v 0.778416 -1.672155 0.393982
v 0.736773 -1.571621 0.261388
v 0.686031 -1.449120 0.152570
v 0.628141 -1.309359 0.071711
v 0.565325 -1.157710 0.021919
v 0.533303 -1.167424 1.738293
v 0.565325 -1.328414 1.688501
v 0.594838 -1.476783 1.607642
v 0.620706 -1.606830 1.498825
v 0.641935 -1.713556 1.366230
v 0.657710 -1.792861 1.214954
v 0.667424 -1.841697 1.050810
v 0.670704 -1.858187 0.880106
v 0.667424 -1.841697 0.709402
v 0.657710 -1.792862 0.545258
v 0.641935 -1.713556 0.393982
v 0.620706 -1.606830 0.261388
v 0.594838 -1.476783 0.152570
v 0.565325 -1.328414 0.071711
v 0.533303 -1.167424 0.021919
v 0.500000 -1.170704 1.738293
v 0.500000 -1.334848 1.688501
v 0.500000 -1.486124 1.607642
v 0.500000 -1.618718 1.498825
v 0.500000 -1.727536 1.366230
v 0.500000 -1.808395 1.214954
v 0.500000 -1.858187 1.050810
v 0.500000 -1.874999 0.880106
v 0.500000 -1.858187 0.709402
v 0.500000 -1.808395 0.545258
v 0.500000 -1.727536 0.393982
v 0.500000 -1.618718 0.261388
v 0.500000 -1.486124 0.152570
v 0.500000 -1.334848 0.071711
v 0.500000 -1.170704 0.021919
v 0.466697 -1.167424 1.738293
v 0.434674 -1.328414 1.688501
v 0.405162 -1.476783 1.607642
v 0.379294 -1.606830 1.498825
v 0.358065 -1.713556 1.366230
v 0.342290 -1.792861 1.214954
v 0.332576 -1.841697 1.050810
v 0.329296 -1.858186 0.880106
v 0.332576 -1.841697 0.709402
v 0.342290 -1.792862 0.545258
v 0.358065 -1.713556 0.393982
v 0.379294 -1.606830 0.261388
v 0.405162 -1.476783 0.152570
v 0.434674 -1.328414 0.071711
v 0.466697 -1.167424 0.021919
v 0.434674 -1.157710 1.738293
v 0.371859 -1.309359 1.688501
v 0.313968 -1.449120 1.607642
v 0.263227 -1.571621 1.498825
v 0.221584 -1.672155 1.366230
v 0.190641 -1.746859 1.214954
v 0.171586 -1.792861 1.050810
v 0.165152 -1.808394 0.880106
v 0.171586 -1.792861 0.709402
v 0.190641 -1.746859 0.545258
v 0.221584 -1.672155 0.393982
v 0.263227 -1.571621 0.261388
v 0.313968 -1.449120 0.152570
v 0.371859 -1.309359 0.071711
v 0.434674 -1.157710 0.021919
v 0.405162 -1.141935 1.738293
v 0.313968 -1.278416 1.688501
v 0.229924 -1.404197 1.607642
v 0.156258 -1.514445 1.498825
v 0.095803 -1.604924 1.366230
v 0.050880 -1.672155 1.214954
v 0.023217 -1.713556 1.050810
v 0.013876 -1.727535 0.880106
v 0.023217 -1.713556 0.709402
v 0.050880 -1.672155 0.545258
v 0.095803 -1.604924 0.393982
v 0.156258 -1.514445 0.261388
v 0.229924 -1.404197 0.152570
v 0.313968 -1.278416 0.071711
v 0.405162 -1.141935 0.021919
v 0.379294 -1.120706 1.738293
v 0.263227 -1.236773 1.688501
v 0.156258 -1.343741 1.607642
v 0.062500 -1.437500 1.498825
v -0.014445 -1.514445 1.366230
v -0.071621 -1.571621 1.214954
v -0.106830 -1.606830 1.050810
v -0.118718 -1.618718 0.880106
v -0.106830 -1.606830 0.709402
v -0.071621 -1.571621 0.545258
v -0.014446 -1.514445 0.393982
v 0.062500 -1.437500 0.261388
v 0.156258 -1.343741 0.152570
v 0.263227 -1.236773 0.071711
v 0.379294 -1.120706 0.021919
v 0.358065 -1.094838 1.738293
v 0.221584 -1.186032 1.688501
v 0.095803 -1.270076 1.607642
v -0.014446 -1.343741 1.498825
v -0.104924 -1.404197 1.366230
v -0.172155 -1.449120 1.214954
v -0.213556 -1.476783 1.050810
v -0.227536 -1.486123 0.880106
v -0.213556 -1.476783 0.709402
v -0.172156 -1.449120 0.545258
v -0.104924 -1.404197 0.393982
v -0.014446 -1.343741 0.261388
v 0.095803 -1.270076 0.152570
v 0.221584 -1.186032 0.071711
v 0.358065 -1.094838 0.021919
v 0.500000 -1.000000 1.755106
v 0.342290 -1.065326 1.738293
v 0.190641 -1.128141 1.688501
v 0.050880 -1.186031 1.607642
v -0.071621 -1.236773 1.498825
v -0.172155 -1.278416 1.366230
v -0.246859 -1.309359 1.214954
v -0.292861 -1.328414 1.050810
v -0.308394 -1.334847 0.880106
v -0.292861 -1.328414 0.709402
v -0.246859 -1.309359 0.545258
v -0.172155 -1.278416 0.393982
v -0.071621 -1.236773 0.261388
v 0.050880 -1.186031 0.152570
v 0.190641 -1.128141 0.071711
v 0.342290 -1.065326 0.021919
v 0.332576 -1.033303 1.738293
v 0.171586 -1.065326 1.688501
v 0.023217 -1.094838 1.607642
v -0.106830 -1.120706 1.498825
v -0.213556 -1.141935 1.366230
v -0.292861 -1.157710 1.214954
v -0.341697 -1.167424 1.050810
v -0.358186 -1.170704 0.880106
v -0.341697 -1.167424 0.709402
v -0.292861 -1.157710 0.545258
v -0.213556 -1.141935 0.393982
v -0.106830 -1.120706 0.261388
v 0.023217 -1.094838 0.152570
v 0.171586 -1.065326 0.071711
v 0.332576 -1.033303 0.021919
v 0.329296 -1.000000 1.738293
v 0.165152 -1.000000 1.688501
v 0.013876 -1.000000 1.607642
v -0.118718 -1.000000 1.498825
v -0.227536 -1.000000 1.366230
v -0.308394 -1.000000 1.214954
v -0.358187 -1.000000 1.050810
v -0.374999 -1.000000 0.880106
v -0.358187 -1.000000 0.709402
v -0.308395 -1.000000 0.545258
v -0.227536 -1.000000 0.393982
v -0.118718 -1.000000 0.261388
v 0.013876 -1.000000 0.152570
v 0.165152 -1.000000 0.071711
v 0.329296 -1.000000 0.021919
v 0.332576 -0.966697 1.738293
v 0.171586 -0.934674 1.688501
v 0.023217 -0.905162 1.607642
v -0.106830 -0.879294 1.498825
v -0.213556 -0.858065 1.366230
v -0.292861 -0.842290 1.214954
v -0.341697 -0.832576 1.050810
v -0.358186 -0.829296 0.880106
v -0.341697 -0.832576 0.709402
v -0.292861 -0.842290 0.545258
v -0.213556 -0.858065 0.393982
v -0.106830 -0.879294 0.261388
v 0.023217 -0.905162 0.152570
v 0.171586 -0.934675 0.071711
v 0.332576 -0.966697 0.021919
v 0.342290 -0.934675 1.738293
v 0.190641 -0.871859 1.688501
v 0.050880 -0.813969 1.607642
v -0.071621 -0.763227 1.498825
v -0.172155 -0.721584 1.366230
v -0.246859 -0.690641 1.214954
v -0.292861 -0.671586 1.050810
v -0.308394 -0.665152 0.880106
v -0.292861 -0.671586 0.709402
v -0.246859 -0.690641 0.545258
v -0.172155 -0.721584 0.393982
v -0.071621 -0.763227 0.261388
v 0.050880 -0.813969 0.152570
v 0.190641 -0.871859 0.071711
v 0.342290 -0.934675 0.021919
v 0.358065 -0.905162 1.738293
v 0.221584 -0.813969 1.688501
v 0.095803 -0.729924 1.607642
v -0.014446 -0.656259 1.498825
v -0.104924 -0.595803 1.366230
v -0.172155 -0.550880 1.214954
v -0.213556 -0.523217 1.050810
v -0.227535 -0.513876 0.880106
v -0.213556 -0.523217 0.709402
v -0.172155 -0.550880 0.545258
v -0.104924 -0.595803 0.393982
v -0.014446 -0.656259 0.261388
v 0.095803 -0.729924 0.152570
v 0.221584 -0.813969 0.071711
v 0.358065 -0.905162 0.021919
v 0.379294 -0.879294 1.738293
v 0.263227 -0.763227 1.688501
v 0.156259 -0.656259 1.607642
v 0.062500 -0.562500 1.498825
v -0.014445 -0.485555 1.366230
v -0.071621 -0.428379 1.214954
v -0.106830 -0.393170 1.050810
v -0.118718 -0.381282 0.880106
v -0.106830 -0.393170 0.709402
v -0.071621 -0.428379 0.545258
v -0.014445 -0.485555 0.393982
v 0.062500 -0.562500 0.261388
v 0.156259 -0.656259 0.152570
v 0.263227 -0.763227 0.071711
v 0.379294 -0.879294 0.021919
v 0.405162 -0.858065 1.738293
v 0.313968 -0.721584 1.688501
v 0.229924 -0.595803 1.607642
v 0.156258 -0.485555 1.498825
v 0.095803 -0.395076 1.366230
v 0.050880 -0.327845 1.214954
v 0.023217 -0.286444 1.050810
v 0.013877 -0.272465 0.880106
v 0.023217 -0.286444 0.709402
v 0.050880 -0.327845 0.545258
v 0.095803 -0.395076 0.393982
v 0.156258 -0.485555 0.261388
v 0.229924 -0.595803 0.152570
v 0.313968 -0.721584 0.071711
v 0.405162 -0.858065 0.021919
v 0.434674 -0.842290 1.738293
v 0.371859 -0.690641 1.688501
v 0.313969 -0.550880 1.607642
v 0.263227 -0.428379 1.498825
v 0.221584 -0.327845 1.366230
v 0.190641 -0.253141 1.214954
v 0.171586 -0.207139 1.050810
v 0.165153 -0.191606 0.880106
v 0.171586 -0.207139 0.709402
v 0.190641 -0.253141 0.545258
v 0.221584 -0.327845 0.393982
v 0.263227 -0.428379 0.261388
v 0.313969 -0.550880 0.152570
v 0.371859 -0.690641 0.071711
v 0.434674 -0.842290 0.021919
v 0.466697 -0.832576 1.738293
v 0.434674 -0.671586 1.688501
v 0.405162 -0.523217 1.607642
v 0.379294 -0.393170 1.498825
v 0.358065 -0.286444 1.366230
v 0.342290 -0.207139 1.214954
v 0.332576 -0.158303 1.050810
v 0.329296 -0.141814 0.880106
v 0.332576 -0.158303 0.709402
v 0.342290 -0.207139 0.545258
v 0.358065 -0.286444 0.393982
v 0.379294 -0.393170 0.261388
v 0.405162 -0.523217 0.152570
v 0.434674 -0.671586 0.071711
v 0.466697 -0.832576 0.021919
v 0.500000 -0.125001 0.880106
v 0.500000 -0.141813 0.709402
v 0.500000 -0.191606 0.545258
v 0.500000 -0.665152 0.071711
v 0.500000 -0.829296 0.021919
v 0.500000 -1.000000 0.005106
vn -0.0000 -0.0000 2.0000
vn -1.9319 -0.5176 -0.0000
vn -0.0000 -0.0000 -2.0000
vn -2.0000 -0.0000 -0.0000
vn 2.0000 -0.0000 -0.0000
vn -0.0000 -2.0000 -0.0000
vn -0.5176 1.9319 -0.0000
vn 1.9319 0.5176 -0.0000
vn 0.5176 -1.9319 -0.0000
vn 0.0572 0.5803 -1.9131
vn 0.1951 1.9809 0.1951
vn 0.0193 0.1960 1.9903
vn 0.0193 0.1960 -1.9903
vn 0.1951 1.9809 -0.1951
vn 0.0572 0.5803 1.9131
vn 0.1877 1.9054 -0.5780
vn 0.0928 0.9418 1.7619
vn 0.1731 1.7572 -0.9393
vn 0.1247 1.2663 1.5430
vn 0.1518 1.5416 -1.2651
vn 0.1518 1.5416 1.2651
vn 0.1247 1.2663 -1.5430
vn 0.1731 1.7572 0.9393
vn 0.0928 0.9418 -1.7619
vn 0.1877 1.9054 0.5780
vn 0.2747 0.9056 -1.7619
vn 0.5558 1.8322 0.5780
vn 0.1693 0.5580 -1.9131
vn 0.5778 1.9048 0.1951
vn 0.0572 0.1885 1.9903
vn 0.0572 0.1885 -1.9903
vn 0.5778 1.9048 -0.1951
vn 0.1693 0.5580 1.9131
vn 0.5558 1.8322 -0.5780
vn 0.2747 0.9056 1.7619
vn 0.5126 1.6897 -0.9393
vn 0.3694 1.2177 1.5430
vn 0.4497 1.4823 -1.2651
vn 0.4497 1.4823 1.2651
vn 0.3694 1.2177 -1.5430
vn 0.5126 1.6897 0.9393
vn 0.4461 0.8346 1.7619
vn 0.8324 1.5572 -0.9393
vn 0.5998 1.1222 1.5430
vn 0.7302 1.3661 -1.2651
vn 0.7302 1.3661 1.2651
vn 0.5998 1.1222 -1.5430
vn 0.8324 1.5572 0.9393
vn 0.4461 0.8346 -1.7619
vn 0.9026 1.6886 0.5780
vn 0.2749 0.5143 -1.9131
vn 0.9383 1.7554 0.1951
vn 0.0929 0.1737 1.9903
vn 0.0929 0.1737 -1.9903
vn 0.9383 1.7554 -0.1951
vn 0.2749 0.5143 1.9131
vn 0.9026 1.6886 -0.5780
vn 1.2146 1.4800 0.5780
vn 0.3699 0.4508 -1.9131
vn 1.2627 1.5386 0.1951
vn 0.1250 0.1523 1.9903
vn 0.1250 0.1523 -1.9903
vn 1.2627 1.5386 -0.1951
vn 0.3699 0.4508 1.9131
vn 1.2146 1.4800 -0.5780
vn 0.6004 0.7315 1.7619
vn 1.1202 1.3649 -0.9393
vn 0.8072 0.9836 1.5430
vn 0.9827 1.1974 -1.2651
vn 0.9827 1.1974 1.2651
vn 0.8072 0.9836 -1.5430
vn 1.1202 1.3649 0.9393
vn 0.6003 0.7315 -1.7619
vn 1.3649 1.1202 -0.9393
vn 0.9836 0.8072 1.5430
vn 1.1974 0.9827 -1.2651
vn 1.1974 0.9827 1.2651
vn 0.9836 0.8072 -1.5430
vn 1.3649 1.1202 0.9393
vn 0.7315 0.6003 -1.7619
vn 1.4800 1.2146 0.5780
vn 0.4508 0.3699 -1.9131
vn 1.5386 1.2627 0.1951
vn 0.1523 0.1250 1.9903
vn 0.1523 0.1250 -1.9903
vn 1.5386 1.2627 -0.1951
vn 0.4508 0.3699 1.9131
vn 1.4800 1.2146 -0.5780
vn 0.7315 0.6004 1.7619
vn 0.5143 0.2749 -1.9131
vn 1.7554 0.9383 0.1951
vn 0.1737 0.0929 1.9903
vn 0.1737 0.0929 -1.9903
vn 1.7554 0.9383 -0.1951
vn 0.5143 0.2749 1.9131
vn 1.6886 0.9026 -0.5780
vn 0.8346 0.4461 1.7619
vn 1.5572 0.8324 -0.9393
vn 1.1222 0.5998 1.5430
vn 1.3661 0.7302 -1.2651
vn 1.3661 0.7302 1.2651
vn 1.1222 0.5998 -1.5430
vn 1.5572 0.8324 0.9393
vn 0.8346 0.4461 -1.7619
vn 1.6886 0.9026 0.5780
vn 1.4823 0.4497 -1.2651
vn 1.4823 0.4497 1.2651
vn 1.2177 0.3694 -1.5430
vn 1.6897 0.5126 0.9393
vn 0.9056 0.2747 -1.7619
vn 1.8322 0.5558 0.5780
vn 0.5580 0.1693 -1.9131
vn 1.9048 0.5778 0.1951
vn 0.1885 0.0572 1.9903
vn 0.1885 0.0572 -1.9903
vn 1.9048 0.5778 -0.1951
vn 0.5580 0.1693 1.9131
vn 1.8322 0.5558 -0.5780
vn 0.9056 0.2747 1.7619
vn 1.6897 0.5126 -0.9393
vn 1.2176 0.3694 1.5430
vn 0.1960 0.0193 1.9903
vn 0.1960 0.0193 -1.9903
vn 1.9809 0.1951 -0.1951
vn 0.5803 0.0572 1.9131
vn 1.9054 0.1877 -0.5780
vn 0.9418 0.0928 1.7619
vn 1.7572 0.1731 -0.9393
vn 1.2663 0.1247 1.5430
vn 1.5416 0.1518 -1.2651
vn 1.5416 0.1518 1.2651
vn 1.2663 0.1247 -1.5430
vn 1.7572 0.1731 0.9393
vn 0.9418 0.0928 -1.7619
vn 1.9054 0.1877 0.5780
vn 0.5803 0.0572 -1.9131
vn 1.9809 0.1951 0.1951
vn 1.5416 -0.1518 1.2651
vn 1.2663 -0.1247 -1.5430
vn 1.7572 -0.1731 0.9393
vn 0.9418 -0.0928 -1.7619
vn 1.9054 -0.1877 0.5780
vn 0.5803 -0.0572 -1.9131
vn 1.9809 -0.1951 0.1951
vn 0.1960 -0.0193 1.9903
vn 0.1960 -0.0193 -1.9903
vn 1.9809 -0.1951 -0.1951
vn 0.5803 -0.0572 1.9131
vn 1.9054 -0.1877 -0.5780
vn 0.9418 -0.0928 1.7619
vn 1.7572 -0.1731 -0.9393
vn 1.2663 -0.1247 1.5430
vn 1.5416 -0.1518 -1.2651
vn 1.9048 -0.5778 -0.1951
vn 0.5580 -0.1693 1.9131
vn 1.8322 -0.5558 -0.5780
vn 0.9056 -0.2747 1.7619
vn 1.6897 -0.5126 -0.9393
vn 1.2177 -0.3694 1.5430
vn 1.4823 -0.4497 -1.2651
vn 1.4823 -0.4497 1.2651
vn 1.2177 -0.3694 -1.5430
vn 1.6897 -0.5126 0.9393
vn 0.9056 -0.2747 -1.7619
vn 1.8322 -0.5558 0.5780
vn 0.5580 -0.1693 -1.9131
vn 1.9048 -0.5778 0.1951
vn 0.1885 -0.0572 1.9903
vn 0.1885 -0.0572 -1.9903
vn 1.1222 -0.5998 -1.5430
vn 1.5572 -0.8324 0.9393
vn 0.8346 -0.4461 -1.7619
vn 1.6886 -0.9026 0.5780
vn 0.5143 -0.2749 -1.9131
vn 1.7554 -0.9383 0.1951
vn 0.1737 -0.0929 1.9903
vn 0.1737 -0.0929 -1.9903
vn 1.7554 -0.9383 -0.1951
vn 0.5143 -0.2749 1.9131
vn 1.6886 -0.9026 -0.5780
vn 0.8346 -0.4461 1.7619
vn 1.5572 -0.8324 -0.9393
vn 1.1222 -0.5998 1.5430
vn 1.3661 -0.7302 -1.2651
vn 1.3661 -0.7302 1.2651
vn 0.4508 -0.3699 1.9131
vn 1.4800 -1.2146 -0.5780
vn 0.7315 -0.6004 1.7619
vn 1.3649 -1.1202 -0.9393
vn 0.9836 -0.8072 1.5430
vn 1.1974 -0.9827 -1.2651
vn 1.1974 -0.9827 1.2651
vn 0.9836 -0.8072 -1.5430
vn 1.3649 -1.1202 0.9393
vn 0.7315 -0.6003 -1.7619
vn 1.4800 -1.2146 0.5780
vn 0.4508 -0.3699 -1.9131
vn 1.5386 -1.2627 0.1951
vn 0.1523 -0.1250 1.9903
vn 0.1523 -0.1250 -1.9903
vn 1.5386 -1.2627 -0.1951
vn 1.1202 -1.3649 0.9393
vn 0.6003 -0.7315 -1.7619
vn 1.2146 -1.4800 0.5780
vn 0.3699 -0.4508 -1.9131
vn 1.2627 -1.5386 0.1951
vn 0.1250 -0.1523 1.9903
vn 0.1250 -0.1523 -1.9903
vn 1.2627 -1.5386 -0.1951
vn 0.3699 -0.4508 1.9131
vn 1.2146 -1.4800 -0.5780
vn 0.6003 -0.7315 1.7619
vn 1.1202 -1.3649 -0.9393
vn 0.8072 -0.9836 1.5430
vn 0.9827 -1.1974 -1.2651
vn 0.9827 -1.1974 1.2651
vn 0.8072 -0.9836 -1.5430
vn 0.9026 -1.6886 -0.5780
vn 0.4461 -0.8346 1.7619
vn 0.8324 -1.5572 -0.9393
vn 0.5998 -1.1222 1.5430
vn 0.7302 -1.3661 -1.2651
vn 0.7302 -1.3661 1.2651
vn 0.5998 -1.1222 -1.5430
vn 0.8324 -1.5572 0.9393
vn 0.4461 -0.8346 -1.7619
vn 0.9026 -1.6886 0.5780
vn 0.2749 -0.5143 -1.9131
vn 0.9383 -1.7554 0.1951
vn 0.0929 -0.1737 1.9903
vn 0.0929 -0.1737 -1.9903
vn 0.9383 -1.7554 -0.1951
vn 0.2749 -0.5143 1.9131
vn 0.2747 -0.9056 -1.7619
vn 0.5558 -1.8322 0.5780
vn 0.1693 -0.5580 -1.9131
vn 0.5778 -1.9048 0.1951
vn 0.0572 -0.1885 1.9903
vn 0.0572 -0.1885 -1.9903
vn 0.5778 -1.9048 -0.1951
vn 0.1693 -0.5580 1.9131
vn 0.5558 -1.8322 -0.5780
vn 0.2747 -0.9056 1.7619
vn 0.5126 -1.6897 -0.9393
vn 0.3694 -1.2177 1.5430
vn 0.4497 -1.4823 -1.2651
vn 0.4497 -1.4823 1.2651
vn 0.3694 -1.2177 -1.5430
vn 0.5126 -1.6897 0.9393
vn 0.1731 -1.7572 -0.9393
vn 0.1247 -1.2663 1.5430
vn 0.1518 -1.5416 -1.2651
vn 0.1518 -1.5416 1.2651
vn 0.1247 -1.2663 -1.5430
vn 0.1731 -1.7572 0.9393
vn 0.0928 -0.9418 -1.7619
vn 0.1877 -1.9054 0.5780
vn 0.0572 -0.5803 -1.9131
vn 0.1951 -1.9809 0.1951
vn 0.0193 -0.1960 1.9903
vn 0.0193 -0.1960 -1.9903
vn 0.1951 -1.9809 -0.1951
vn 0.0572 -0.5803 1.9131
vn 0.1877 -1.9054 -0.5780
vn 0.0928 -0.9418 1.7619
vn -0.0572 -0.5803 -1.9131
vn -0.1951 -1.9809 0.1951
vn -0.0193 -0.1960 1.9903
vn -0.0193 -0.1960 -1.9903
vn -0.1951 -1.9809 -0.1951
vn -0.0572 -0.5803 1.9131
vn -0.1877 -1.9054 -0.5780
vn -0.0928 -0.9418 1.7619
vn -0.1731 -1.7572 -0.9393
vn -0.1247 -1.2663 1.5430
vn -0.1518 -1.5416 -1.2651
vn -0.1518 -1.5416 1.2651
vn -0.1247 -1.2663 -1.5430
vn -0.1731 -1.7572 0.9393
vn -0.0928 -0.9418 -1.7619
vn -0.1877 -1.9054 0.5780
vn -0.3694 -1.2177 1.5430
vn -0.4497 -1.4823 -1.2651
vn -0.4497 -1.4823 1.2651
vn -0.3694 -1.2177 -1.5430
vn -0.5126 -1.6897 0.9393
vn -0.2747 -0.9056 -1.7619
vn -0.5558 -1.8322 0.5780
vn -0.1693 -0.5580 -1.9131
vn -0.5778 -1.9048 0.1951
vn -0.0572 -0.1885 1.9903
vn -0.0572 -0.1885 -1.9903
vn -0.5778 -1.9048 -0.1951
vn -0.1693 -0.5580 1.9131
vn -0.5558 -1.8322 -0.5780
vn -0.2747 -0.9056 1.7619
vn -0.5126 -1.6897 -0.9393
vn -0.9383 -1.7554 0.1951
vn -0.0929 -0.1737 1.9903
vn -0.0929 -0.1737 -1.9903
vn -0.9383 -1.7554 -0.1951
vn -0.2749 -0.5143 1.9131
vn -0.9026 -1.6886 -0.5780
vn -0.4461 -0.8346 1.7619
vn -0.8324 -1.5572 -0.9393
vn -0.5998 -1.1222 1.5430
vn -0.7302 -1.3661 -1.2651
vn -0.7302 -1.3661 1.2651
vn -0.5998 -1.1222 -1.5430
vn -0.8324 -1.5572 0.9393
vn -0.4461 -0.8346 -1.7619
vn -0.9026 -1.6886 0.5780
vn -0.2749 -0.5143 -1.9131
vn -0.9827 -1.1974 -1.2651
vn -0.9827 -1.1974 1.2651
vn -0.8072 -0.9836 -1.5430
vn -1.1202 -1.3649 0.9393
vn -0.6003 -0.7315 -1.7619
vn -1.2146 -1.4800 0.5780
vn -0.3699 -0.4508 -1.9131
vn -1.2627 -1.5386 0.1951
vn -0.1250 -0.1523 1.9903
vn -0.1250 -0.1523 -1.9903
vn -1.2627 -1.5386 -0.1951
vn -0.3699 -0.4508 1.9131
vn -1.2146 -1.4800 -0.5780
vn -0.6003 -0.7315 1.7619
vn -1.1202 -1.3649 -0.9393
vn -0.8072 -0.9836 1.5430
vn -0.1523 -0.1250 1.9903
vn -0.1523 -0.1250 -1.9903
vn -1.5386 -1.2627 -0.1951
vn -0.4508 -0.3699 1.9131
vn -1.4801 -1.2146 -0.5780
vn -0.7315 -0.6004 1.7619
vn -1.3649 -1.1202 -0.9393
vn -0.9836 -0.8072 1.5430
vn -1.1974 -0.9827 -1.2651
vn -1.1974 -0.9827 1.2651
vn -0.9836 -0.8072 -1.5430
vn -1.3649 -1.1202 0.9393
vn -0.7315 -0.6003 -1.7619
vn -1.4801 -1.2146 0.5780
vn -0.4508 -0.3699 -1.9131
vn -1.5386 -1.2627 0.1951
vn -1.3661 -0.7302 1.2651
vn -1.1222 -0.5998 -1.5430
vn -1.5572 -0.8324 0.9393
vn -0.8346 -0.4461 -1.7619
vn -1.6886 -0.9026 0.5780
vn -0.5143 -0.2749 -1.9131
vn -1.7554 -0.9383 0.1951
vn -0.1737 -0.0929 1.9903
vn -0.1737 -0.0929 -1.9903
vn -1.7554 -0.9383 -0.1951
vn -0.5143 -0.2749 1.9131
vn -1.6886 -0.9026 -0.5780
vn -0.8346 -0.4461 1.7619
vn -1.5572 -0.8324 -0.9393
vn -1.1222 -0.5998 1.5430
vn -1.3661 -0.7302 -1.2651
vn -1.9048 -0.5778 -0.1951
vn -0.5580 -0.1693 1.9131
vn -1.8322 -0.5558 -0.5780
vn -0.9056 -0.2747 1.7619
vn -1.6897 -0.5126 -0.9393
vn -1.2176 -0.3694 1.5430
vn -1.4823 -0.4497 -1.2651
vn -1.4823 -0.4497 1.2651
vn -1.2177 -0.3694 -1.5430
vn -1.6897 -0.5126 0.9393
vn -0.9056 -0.2747 -1.7619
vn -1.8322 -0.5558 0.5780
vn -0.5580 -0.1693 -1.9131
vn -1.9048 -0.5778 0.1951
vn -0.1885 -0.0572 1.9903
vn -0.1885 -0.0572 -1.9903
vn -1.2663 -0.1247 -1.5430
vn -1.7572 -0.1731 0.9393
vn -0.9418 -0.0928 -1.7619
vn -1.9054 -0.1877 0.5780
vn -0.5803 -0.0572 -1.9131
vn -1.9809 -0.1951 0.1951
vn -0.1960 -0.0193 1.9903
vn -0.1960 -0.0193 -1.9903
vn -1.9809 -0.1951 -0.1951
vn -0.5803 -0.0572 1.9131
vn -1.9054 -0.1877 -0.5780
vn -0.9418 -0.0928 1.7619
vn -1.7572 -0.1731 -0.9393
vn -1.2663 -0.1247 1.5430
vn -1.5416 -0.1518 -1.2651
vn -1.5416 -0.1518 1.2651
vn -1.9054 0.1877 -0.5780
vn -0.9418 0.0928 1.7619
vn -1.7572 0.1731 -0.9393
vn -1.2663 0.1247 1.5430
vn -1.5416 0.1518 -1.2651
vn -1.5416 0.1518 1.2651
vn -1.2663 0.1247 -1.5430
vn -1.7572 0.1731 0.9393
vn -0.9418 0.0928 -1.7619
vn -1.9054 0.1877 0.5780
vn -0.5803 0.0572 -1.9131
vn -1.9809 0.1951 0.1951
vn -0.1960 0.0193 1.9903
vn -0.1960 0.0193 -1.9903
vn -1.9809 0.1951 -0.1951
vn -0.5803 0.0572 1.9131
vn -0.9056 0.2747 -1.7619
vn -1.8322 0.5558 0.5780
vn -0.5580 0.1693 -1.9131
vn -1.9048 0.5778 0.1951
vn -0.1885 0.0572 1.9903
vn -0.1885 0.0572 -1.9903
vn -1.9048 0.5778 -0.1951
vn -0.5580 0.1693 1.9131
vn -1.8322 0.5558 -0.5780
vn -0.9056 0.2747 1.7619
vn -1.6897 0.5126 -0.9393
vn -1.2176 0.3694 1.5430
vn -1.4823 0.4497 -1.2651
vn -1.4823 0.4497 1.2651
vn -1.2177 0.3694 -1.5430
vn -1.6897 0.5126 0.9393
vn -0.8346 0.4461 1.7619
vn -1.5572 0.8324 -0.9393
vn -1.1222 0.5998 1.5430
vn -1.3661 0.7302 -1.2651
vn -1.3661 0.7302 1.2651
vn -1.1222 0.5998 -1.5430
vn -1.5572 0.8324 0.9393
vn -0.8346 0.4461 -1.7619
vn -1.6886 0.9026 0.5780
vn -0.5143 0.2749 -1.9131
vn -1.7554 0.9383 0.1951
vn -0.1737 0.0929 1.9903
vn -0.1737 0.0929 -1.9903
vn -1.7554 0.9383 -0.1951
vn -0.5143 0.2749 1.9131
vn -1.6886 0.9026 -0.5780
vn -1.4800 1.2146 0.5780
vn -0.4508 0.3699 -1.9131
vn -1.5386 1.2627 0.1951
vn -0.1523 0.1250 1.9903
vn -0.1523 0.1250 -1.9903
vn -1.5386 1.2627 -0.1951
vn -0.4508 0.3699 1.9131
vn -1.4800 1.2146 -0.5780
vn -0.7315 0.6004 1.7619
vn -1.3649 1.1202 -0.9393
vn -0.9836 0.8072 1.5430
vn -1.1974 0.9827 -1.2651
vn -1.1974 0.9827 1.2651
vn -0.9836 0.8072 -1.5430
vn -1.3649 1.1202 0.9393
vn -0.7315 0.6003 -1.7619
vn -1.1202 1.3649 -0.9393
vn -0.8072 0.9836 1.5430
vn -0.9827 1.1974 -1.2651
vn -0.9827 1.1974 1.2651
vn -0.8072 0.9836 -1.5430
vn -1.1202 1.3649 0.9393
vn -0.6003 0.7315 -1.7619
vn -1.2146 1.4800 0.5780
vn -0.3699 0.4508 -1.9131
vn -1.2627 1.5386 0.1951
vn -0.1250 0.1523 1.9903
vn -0.1250 0.1523 -1.9903
vn -1.2627 1.5386 -0.1951
vn -0.3699 0.4508 1.9131
vn -1.2146 1.4800 -0.5780
vn -0.6004 0.7315 1.7619
vn -0.2749 0.5143 -1.9131
vn -0.9383 1.7554 0.1951
vn -0.0929 0.1737 1.9903
vn -0.0929 0.1737 -1.9903
vn -0.9383 1.7554 -0.1951
vn -0.2749 0.5143 1.9131
vn -0.9026 1.6886 -0.5780
vn -0.4461 0.8346 1.7619
vn -0.8324 1.5572 -0.9393
vn -0.5998 1.1222 1.5430
vn -0.7302 1.3661 -1.2651
vn -0.7302 1.3661 1.2651
vn -0.5998 1.1222 -1.5430
vn -0.8324 1.5572 0.9393
vn -0.4461 0.8346 -1.7619
vn -0.9026 1.6886 0.5780
vn -0.3694 1.2176 1.5430
vn -0.4497 1.4823 -1.2651
vn -0.4497 1.4823 1.2651
vn -0.3694 1.2177 -1.5430
vn -0.5126 1.6897 0.9393
vn -0.2747 0.9056 -1.7619
vn -0.5558 1.8322 0.5780
vn -0.1693 0.5580 -1.9131
vn -0.5778 1.9048 0.1951
vn -0.0572 0.1885 1.9903
vn -0.0572 0.1885 -1.9903
vn -0.5778 1.9048 -0.1951
vn -0.1693 0.5580 1.9131
vn -0.5558 1.8322 -0.5780
vn -0.2747 0.9056 1.7619
vn -0.5126 1.6897 -0.9393
vn -0.1951 1.9809 0.1951
vn -0.0193 0.1960 1.9903
vn -0.0193 0.1960 -1.9903
vn -0.1951 1.9809 -0.1951
vn -0.0572 0.5803 1.9131
vn -0.1877 1.9054 -0.5780
vn -0.0928 0.9418 1.7619
vn -0.1731 1.7572 -0.9393
vn -0.1247 1.2663 1.5430
vn -0.1518 1.5416 -1.2651
vn -0.1518 1.5416 1.2651
vn -0.1247 1.2663 -1.5430
vn -0.1731 1.7572 0.9393
vn -0.0928 0.9418 -1.7619
vn -0.1877 1.9054 0.5780
vn -0.0572 0.5803 -1.9131
vt 0.005990 0.673425
vt 0.572383 0.685405
vt 0.333717 0.673425
vt 0.572383 0.685405
vt 0.005990 0.345698
vt 0.572383 0.685405
vt 0.333717 0.345698
vt 0.572383 0.685405
vt 0.572383 0.685405
vt 0.663863 0.345698
vt 0.572383 0.685405
vt 0.345698 0.005990
vt 0.572383 0.685405
vt 0.345698 0.345698
vt 0.994010 0.005990
vt 0.572383 0.685405
vt 0.663863 0.005990
vt 0.675844 0.005990
vt 0.663863 0.673425
vt 0.333717 0.333717
vt 0.345698 0.333717
vt 0.005990 0.333717
vt 0.202626 0.137081
vt 0.137081 0.137081
vt 0.676658 0.563672
vt 0.675844 0.345698
vt 0.898010 0.553611
vt 0.880608 0.563672
vt 0.675844 0.549648
vt 0.996344 0.349155
vt 0.676658 0.661971
vt 0.884437 0.345698
vt 0.898010 0.455293
vt 0.880608 0.661971
vt 0.884437 0.549648
vt 0.898026 0.349155
vt 0.898500 0.561628
vt 0.774157 0.345698
vt 0.996328 0.553611
vt 0.898500 0.765578
vt 0.774157 0.549648
vt 0.996344 0.447473
vt 0.786138 0.345698
vt 0.996799 0.561628
vt 0.996328 0.455293
vt 0.786138 0.549648
vt 0.996799 0.765578
vt 0.898026 0.447473
vt 0.345698 0.673425
vt 0.994010 0.333717
vt 0.333717 0.005990
vt 0.137081 0.202626
vt 0.202626 0.202626
vt 0.663863 0.333717
vt 0.675844 0.333717
vt 0.005990 0.005990
vt 0.271568 0.906045
vt 0.249310 0.911267
vt 0.228796 0.916080
vt 0.210816 0.920299
vt 0.449935 0.856429
vt 0.446300 0.837960
vt 0.443600 0.816890
vt 0.441937 0.794027
vt 0.446300 0.702542
vt 0.449935 0.684074
vt 0.186455 0.917030
vt 0.168229 0.914047
vt 0.273072 0.910456
vt 0.252260 0.919921
vt 0.233080 0.928643
vt 0.216269 0.936289
vt 0.434010 0.856429
vt 0.427575 0.837960
vt 0.422793 0.816890
vt 0.419849 0.794027
vt 0.418854 0.770251
vt 0.419849 0.746475
vt 0.422793 0.723612
vt 0.427575 0.702542
vt 0.434010 0.684074
vt 0.182105 0.933354
vt 0.164811 0.926872
vt 0.145081 0.919478
vt 0.123673 0.911454
vt 0.275408 0.914489
vt 0.256843 0.927832
vt 0.239733 0.940129
vt 0.419491 0.856429
vt 0.224736 0.950907
vt 0.212428 0.959753
vt 0.410503 0.837960
vt 0.403823 0.816890
vt 0.399710 0.794027
vt 0.398322 0.770251
vt 0.399710 0.746475
vt 0.403823 0.723612
vt 0.410503 0.702542
vt 0.187536 0.956502
vt 0.419491 0.684074
vt 0.174654 0.948516
vt 0.158957 0.938785
vt 0.141049 0.927683
vt 0.121617 0.915637
vt 0.278486 0.917989
vt 0.262881 0.934698
vt 0.248499 0.950096
vt 0.235892 0.963593
vt 0.395740 0.837960
vt 0.225547 0.974670
vt 0.699393 0.974732
vt 0.387420 0.816890
vt 0.706984 0.953661
vt 0.382297 0.794027
vt 0.711658 0.930799
vt 0.380567 0.770251
vt 0.713237 0.907022
vt 0.382297 0.746475
vt 0.711658 0.883246
vt 0.387420 0.723612
vt 0.706984 0.860384
vt 0.395740 0.702542
vt 0.699393 0.839313
vt 0.175465 0.972278
vt 0.164388 0.961933
vt 0.150892 0.949327
vt 0.135493 0.934945
vt 0.118785 0.919339
vt 0.282188 0.920822
vt 0.270142 0.940254
vt 0.259040 0.958162
vt 0.249310 0.973859
vt 0.675642 0.993200
vt 0.241324 0.986741
vt 0.683477 0.974732
vt 0.689299 0.953661
vt 0.692884 0.930799
vt 0.694094 0.907022
vt 0.692884 0.883246
vt 0.689299 0.860384
vt 0.160548 0.985397
vt 0.683477 0.839313
vt 0.675642 0.820845
vt 0.151703 0.973089
vt 0.140924 0.958092
vt 0.128628 0.940982
vt 0.115285 0.922417
vt 0.286371 0.922877
vt 0.278347 0.944286
vt 0.270953 0.964016
vt 0.264471 0.981310
vt 0.660394 0.993200
vt 0.665547 0.974732
vt 0.669376 0.953661
vt 0.671734 0.930799
vt 0.672530 0.907022
vt 0.671734 0.883246
vt 0.669376 0.860384
vt 0.665547 0.839313
vt 0.660394 0.820845
vt 0.137084 0.981556
vt 0.129438 0.964745
vt 0.120716 0.945565
vt 0.111252 0.924753
vt 0.290875 0.924078
vt 0.287182 0.946640
vt 0.283779 0.967434
vt 0.644020 0.993200
vt 0.280796 0.985659
vt 0.646294 0.974732
vt 0.647983 0.953661
vt 0.649023 0.930799
vt 0.649374 0.907022
vt 0.649023 0.883246
vt 0.647983 0.860384
vt 0.646294 0.839313
vt 0.644020 0.820845
vt 0.121094 0.987009
vt 0.116876 0.969029
vt 0.112062 0.948516
vt 0.106840 0.926258
vt 0.295526 0.924376
vt 0.296306 0.947225
vt 0.297025 0.968283
vt 0.297655 0.986741
vt 0.627150 0.993200
vt 0.626456 0.974732
vt 0.625940 0.953661
vt 0.625623 0.930799
vt 0.625515 0.907022
vt 0.625623 0.883246
vt 0.625940 0.860384
vt 0.626456 0.839313
vt 0.627150 0.820845
vt 0.104348 0.989237
vt 0.103718 0.970780
vt 0.103000 0.949722
vt 0.102220 0.926872
vt 0.300147 0.923761
vt 0.305369 0.946019
vt 0.310182 0.966532
vt 0.610431 0.993200
vt 0.314401 0.984513
vt 0.606796 0.974732
vt 0.604096 0.953661
vt 0.602433 0.930799
vt 0.601871 0.907022
vt 0.602433 0.883246
vt 0.604096 0.860384
vt 0.606796 0.839313
vt 0.087489 0.988156
vt 0.610431 0.820845
vt 0.090472 0.969930
vt 0.093875 0.949136
vt 0.097568 0.926574
vt 0.304558 0.922257
vt 0.314023 0.943068
vt 0.322745 0.962248
vt 0.330391 0.979060
vt 0.594506 0.993200
vt 0.588071 0.974732
vt 0.583289 0.953661
vt 0.580344 0.930799
vt 0.579350 0.907022
vt 0.580344 0.883246
vt 0.583289 0.860384
vt 0.588071 0.839313
vt 0.594506 0.820845
vt 0.071165 0.983806
vt 0.077646 0.966512
vt 0.085041 0.946782
vt 0.093065 0.925374
vt 0.308591 0.919921
vt 0.321934 0.938486
vt 0.334231 0.955596
vt 0.579987 0.993200
vt 0.345009 0.970593
vt 0.570998 0.974732
vt 0.353855 0.982900
vt 0.564319 0.953661
vt 0.560206 0.930799
vt 0.558818 0.907022
vt 0.560206 0.883246
vt 0.564319 0.860384
vt 0.570998 0.839313
vt 0.048017 0.989237
vt 0.579987 0.820845
vt 0.056003 0.976355
vt 0.065734 0.960658
vt 0.076835 0.942750
vt 0.088881 0.923318
vt 0.312091 0.916843
vt 0.328800 0.932448
vt 0.344198 0.946830
vt 0.357695 0.959436
vt 0.556236 0.974732
vt 0.368772 0.969782
vt 0.838811 0.825388
vt 0.547916 0.953661
vt 0.846321 0.804318
vt 0.542792 0.930799
vt 0.850946 0.781455
vt 0.541063 0.907022
vt 0.852507 0.757679
vt 0.542792 0.883246
vt 0.850946 0.733903
vt 0.547916 0.860384
vt 0.846321 0.711040
vt 0.556236 0.839313
vt 0.838811 0.689970
vt 0.032240 0.977166
vt 0.042586 0.966089
vt 0.055192 0.952593
vt 0.069574 0.937194
vt 0.085180 0.920486
vt 0.314924 0.913141
vt 0.334355 0.925187
vt 0.352264 0.936289
vt 0.367961 0.946019
vt 0.815072 0.843857
vt 0.380843 0.954005
vt 0.822780 0.825388
vt 0.828508 0.804318
vt 0.832035 0.781455
vt 0.833226 0.757679
vt 0.832035 0.733903
vt 0.828508 0.711040
vt 0.019122 0.962249
vt 0.822780 0.689970
vt 0.815072 0.671501
vt 0.031429 0.953404
vt 0.046426 0.942625
vt 0.063536 0.930329
vt 0.082102 0.916986
vt 0.316979 0.908958
vt 0.338388 0.916981
vt 0.358118 0.924376
vt 0.375411 0.930857
vt 0.799754 0.843857
vt 0.804768 0.825388
vt 0.808494 0.804318
vt 0.810789 0.781455
vt 0.811564 0.757679
vt 0.810789 0.733903
vt 0.808494 0.711040
vt 0.804768 0.689970
vt 0.799754 0.671501
vt 0.022962 0.938785
vt 0.039774 0.931140
vt 0.058954 0.922417
vt 0.079765 0.912953
vt 0.318179 0.904454
vt 0.340742 0.908147
vt 0.361535 0.911550
vt 0.379761 0.914533
vt 0.783341 0.843857
vt 0.785468 0.825388
vt 0.787049 0.804318
vt 0.788023 0.781455
vt 0.788351 0.757679
vt 0.788023 0.733903
vt 0.787049 0.711040
vt 0.785468 0.689970
vt 0.783341 0.671501
vt 0.017510 0.922795
vt 0.035490 0.918577
vt 0.056003 0.913764
vt 0.078261 0.908541
vt 0.318478 0.899802
vt 0.341327 0.899023
vt 0.362385 0.898304
vt 0.380843 0.897674
vt 0.766462 0.843857
vt 0.765621 0.825388
vt 0.764997 0.804318
vt 0.764612 0.781455
vt 0.764482 0.757679
vt 0.764612 0.733903
vt 0.764997 0.711040
vt 0.765621 0.689970
vt 0.766462 0.671501
vt 0.015281 0.906049
vt 0.033739 0.905419
vt 0.054797 0.904701
vt 0.077646 0.903921
vt 0.317863 0.895182
vt 0.340121 0.889960
vt 0.360634 0.885147
vt 0.378614 0.880928
vt 0.749768 0.843857
vt 0.745990 0.825388
vt 0.743184 0.804318
vt 0.741456 0.781455
vt 0.740872 0.757679
vt 0.741456 0.733903
vt 0.743184 0.711040
vt 0.745990 0.689970
vt 0.749768 0.671501
vt 0.016363 0.889190
vt 0.034589 0.892173
vt 0.055382 0.895577
vt 0.077945 0.899269
vt 0.316359 0.890771
vt 0.337170 0.881306
vt 0.356350 0.872584
vt 0.373162 0.864938
vt 0.733898 0.843857
vt 0.727330 0.825388
vt 0.722450 0.804318
vt 0.719444 0.781455
vt 0.718430 0.757679
vt 0.719444 0.733903
vt 0.722450 0.711040
vt 0.727330 0.689970
vt 0.733898 0.671501
vt 0.020713 0.872866
vt 0.038006 0.879347
vt 0.057736 0.886742
vt 0.079145 0.894766
vt 0.314023 0.886737
vt 0.332588 0.873395
vt 0.349698 0.861098
vt 0.719464 0.843857
vt 0.364695 0.850320
vt 0.377002 0.841474
vt 0.710357 0.825388
vt 0.703590 0.804318
vt 0.699423 0.781455
vt 0.698016 0.757679
vt 0.699423 0.733903
vt 0.703590 0.711040
vt 0.710357 0.689970
vt 0.015281 0.849718
vt 0.719464 0.671501
vt 0.028164 0.857704
vt 0.043860 0.867435
vt 0.061769 0.878536
vt 0.081200 0.890582
vt 0.310944 0.883237
vt 0.326550 0.866529
vt 0.340932 0.851131
vt 0.353538 0.837634
vt 0.695724 0.825388
vt 0.363884 0.826557
vt 0.980698 0.973640
vt 0.687331 0.804318
vt 0.988288 0.952570
vt 0.682163 0.781455
vt 0.992963 0.929707
vt 0.680417 0.757679
vt 0.994541 0.905931
vt 0.682163 0.733903
vt 0.992963 0.882155
vt 0.687331 0.711040
vt 0.988288 0.859292
vt 0.695724 0.689970
vt 0.027353 0.833942
vt 0.980698 0.838222
vt 0.038429 0.844287
vt 0.051926 0.856893
vt 0.067324 0.871275
vt 0.084033 0.886881
vt 0.307243 0.880405
vt 0.319289 0.860973
vt 0.330390 0.843065
vt 0.340121 0.827368
vt 0.956946 0.992109
vt 0.348107 0.814486
vt 0.964781 0.973640
vt 0.970603 0.952570
vt 0.974188 0.929707
vt 0.975398 0.905931
vt 0.974188 0.882155
vt 0.970603 0.859292
vt 0.042270 0.820823
vt 0.964781 0.838222
vt 0.956946 0.819754
vt 0.051115 0.833131
vt 0.061893 0.848127
vt 0.074190 0.865237
vt 0.087533 0.883803
vt 0.303060 0.878349
vt 0.311083 0.856941
vt 0.318478 0.837211
vt 0.941698 0.992109
vt 0.324959 0.819917
vt 0.946851 0.973640
vt 0.950680 0.952570
vt 0.953038 0.929707
vt 0.953835 0.905931
vt 0.953038 0.882155
vt 0.950680 0.859292
vt 0.946851 0.838222
vt 0.065734 0.824663
vt 0.941698 0.819754
vt 0.073379 0.841475
vt 0.082102 0.860655
vt 0.091566 0.881467
vt 0.294715 0.900613
vt 0.298556 0.877149
vt 0.302249 0.854587
vt 0.305652 0.833793
vt 0.308635 0.815568
vt 0.925325 0.992109
vt 0.927598 0.973640
vt 0.929287 0.952570
vt 0.930327 0.929707
vt 0.930678 0.905931
vt 0.930327 0.882155
vt 0.929287 0.859292
vt 0.927598 0.838222
vt 0.925325 0.819754
vt 0.081723 0.819211
vt 0.085942 0.837191
vt 0.090755 0.857704
vt 0.095978 0.879962
vt 0.293904 0.876851
vt 0.293124 0.854002
vt 0.292406 0.832944
vt 0.291776 0.814486
vt 0.908454 0.992109
vt 0.907760 0.973640
vt 0.907245 0.952570
vt 0.906927 0.929707
vt 0.906820 0.905931
vt 0.906927 0.882155
vt 0.907245 0.859292
vt 0.907760 0.838222
vt 0.098469 0.816983
vt 0.908454 0.819754
vt 0.099099 0.835440
vt 0.099818 0.856498
vt 0.100598 0.879347
vt 0.289284 0.877466
vt 0.284062 0.855208
vt 0.279249 0.834694
vt 0.275030 0.816714
vt 0.891735 0.992109
vt 0.888101 0.973640
vt 0.885400 0.952570
vt 0.883737 0.929707
vt 0.883176 0.905931
vt 0.883737 0.882155
vt 0.885400 0.859292
vt 0.888101 0.838222
vt 0.891735 0.819754
vt 0.115329 0.818064
vt 0.112345 0.836290
vt 0.108942 0.857083
vt 0.105249 0.879646
vt 0.284873 0.878970
vt 0.275408 0.858159
vt 0.266686 0.838979
vt 0.259040 0.822167
vt 0.875810 0.992109
vt 0.869375 0.973640
vt 0.864593 0.952570
vt 0.861649 0.929707
vt 0.860654 0.905931
vt 0.861649 0.882155
vt 0.864593 0.859292
vt 0.869375 0.838222
vt 0.875810 0.819754
vt 0.131653 0.822414
vt 0.125171 0.839707
vt 0.117777 0.859437
vt 0.109753 0.880846
vt 0.280839 0.881306
vt 0.267497 0.862741
vt 0.255200 0.845631
vt 0.861291 0.992109
vt 0.244422 0.830634
vt 0.235576 0.818327
vt 0.852303 0.973640
vt 0.845624 0.952570
vt 0.841511 0.929707
vt 0.840122 0.905931
vt 0.841511 0.882155
vt 0.845624 0.859292
vt 0.852303 0.838222
vt 0.154800 0.816983
vt 0.861291 0.819754
vt 0.146815 0.829865
vt 0.137084 0.845562
vt 0.125982 0.863470
vt 0.113936 0.882902
vt 0.277339 0.884384
vt 0.260631 0.868779
vt 0.245233 0.854397
vt 0.231736 0.841791
vt 0.837540 0.973640
vt 0.220659 0.831445
vt 0.538897 0.837960
vt 0.829220 0.952570
vt 0.546488 0.816890
vt 0.824097 0.929707
vt 0.551163 0.794027
vt 0.822367 0.905931
vt 0.552741 0.770251
vt 0.824097 0.882155
vt 0.551163 0.746475
vt 0.829220 0.859292
vt 0.546488 0.723612
vt 0.837540 0.838222
vt 0.538898 0.702542
vt 0.170577 0.829054
vt 0.160232 0.840130
vt 0.147626 0.853627
vt 0.133243 0.869026
vt 0.117638 0.885734
vt 0.274507 0.888086
vt 0.255075 0.876040
vt 0.237167 0.864938
vt 0.221470 0.855208
vt 0.515146 0.856429
vt 0.208588 0.847222
vt 0.522981 0.837960
vt 0.528803 0.816890
vt 0.532388 0.794027
vt 0.533598 0.770251
vt 0.532388 0.746475
vt 0.528803 0.723612
vt 0.183696 0.843971
vt 0.522981 0.702542
vt 0.515146 0.684074
vt 0.171388 0.852816
vt 0.156391 0.863594
vt 0.139281 0.875891
vt 0.120716 0.889234
vt 0.272451 0.892269
vt 0.251043 0.884246
vt 0.231313 0.876851
vt 0.214019 0.870369
vt 0.499898 0.856429
vt 0.505051 0.837960
vt 0.508880 0.816890
vt 0.511238 0.794027
vt 0.512034 0.770251
vt 0.511238 0.746475
vt 0.508880 0.723612
vt 0.505051 0.702542
vt 0.499898 0.684074
vt 0.179855 0.867435
vt 0.163044 0.875080
vt 0.143864 0.883803
vt 0.123052 0.893267
vt 0.271251 0.896773
vt 0.248689 0.893080
vt 0.227895 0.889677
vt 0.209669 0.886694
vt 0.483524 0.856429
vt 0.485798 0.837960
vt 0.487487 0.816890
vt 0.488527 0.794027
vt 0.488878 0.770251
vt 0.488527 0.746475
vt 0.487487 0.723612
vt 0.485798 0.702542
vt 0.483524 0.684074
vt 0.185308 0.883424
vt 0.167328 0.887643
vt 0.146815 0.892456
vt 0.124556 0.897679
vt 0.270953 0.901424
vt 0.248104 0.902204
vt 0.227046 0.902923
vt 0.208588 0.903553
vt 0.466654 0.856429
vt 0.465960 0.837960
vt 0.465444 0.816890
vt 0.465127 0.794027
vt 0.465020 0.770251
vt 0.465127 0.746475
vt 0.465444 0.723612
vt 0.465960 0.702542
vt 0.466654 0.684074
vt 0.187536 0.900170
vt 0.169079 0.900800
vt 0.148021 0.901519
vt 0.125171 0.902299
vt 0.441375 0.770251
vt 0.441937 0.746475
vt 0.443600 0.723612
vt 0.147435 0.910643
vt 0.124873 0.906950
vt 0.101409 0.903110
s 0
usemtl Cornell_Box
f 1/1/1 2/3/1 4/7/1 3/5/1
f 13/25/2 14/28/2 16/34/2 15/31/2
f 2/4/1 6/11/1 8/16/1 4/8/1
f 3/6/1 7/13/1 5/9/1 1/2/1
f 4/8/1 8/16/1 7/13/1 3/6/1
f 1/2/1 5/9/1 6/11/1 2/4/1
f 23/53/3 11/23/3 12/24/3 22/52/3
f 6/12/4 10/21/4 24/54/4 8/17/4
f 7/14/5 21/49/5 9/19/5 5/10/5
f 8/18/6 24/55/6 21/50/6 7/15/6
f 15/32/7 16/35/7 20/46/7 19/43/7
f 19/44/8 20/47/8 18/40/8 17/37/8
f 17/38/9 18/41/9 14/29/9 13/26/9
f 15/33/3 19/45/3 17/39/3 13/27/3
f 20/48/1 16/36/1 14/30/1 18/42/1
f 23/53/3 9/20/3 21/51/3 11/23/3
f 22/52/3 10/22/3 9/20/3 23/53/3
f 12/24/3 24/56/3 10/22/3 22/52/3
f 11/23/3 21/51/3 24/56/3 12/24/3
f 505/645/10 504/644/10 48/84/10 49/85/10
f 501/641/11 31/64/11 41/76/11 42/77/11
f 25/57/12 350/459/12 35/69/12
f 506/646/13 505/645/13 49/85/13
f 502/642/14 501/641/14 42/77/14 43/78/14
f 26/58/15 25/57/15 35/69/15 36/70/15
f 503/643/16 502/642/16 43/78/16 44/79/16
f 27/59/17 26/58/17 36/70/17 37/71/17
f 32/65/18 503/643/18 44/79/18 45/80/18
f 28/60/19 27/59/19 37/71/19 38/72/19
f 33/66/20 32/65/20 45/80/20 46/81/20
f 29/62/21 28/61/21 38/73/21 39/74/21
f 34/68/22 33/67/22 46/82/22 47/83/22
f 30/63/23 29/62/23 39/74/23 40/75/23
f 504/644/24 34/68/24 47/83/24 48/84/24
f 31/64/25 30/63/25 40/75/25 41/76/25
f 48/84/26 47/83/26 62/102/26 63/103/26
f 41/76/27 40/75/27 55/93/27 56/94/27
f 49/85/28 48/84/28 63/103/28 64/104/28
f 42/77/29 41/76/29 56/94/29 57/95/29
f 35/69/30 350/459/30 50/86/30
f 506/646/31 49/85/31 64/104/31
f 43/78/32 42/77/32 57/95/32 58/96/32
f 36/70/33 35/69/33 50/86/33 51/87/33
f 44/79/34 43/78/34 58/96/34 59/97/34
f 37/71/35 36/70/35 51/87/35 52/88/35
f 45/80/36 44/79/36 59/97/36 60/98/36
f 38/72/37 37/71/37 52/88/37 53/90/37
f 46/81/38 45/80/38 60/98/38 61/100/38
f 39/74/39 38/73/39 53/89/39 54/92/39
f 47/83/40 46/82/40 61/101/40 62/102/40
f 40/75/41 39/74/41 54/92/41 55/93/41
f 52/88/42 51/87/42 66/106/42 67/107/42
f 60/98/43 59/97/43 74/120/43 75/122/43
f 53/90/44 52/88/44 67/107/44 68/108/44
f 61/101/45 60/99/45 75/124/45 76/125/45
f 54/91/46 53/90/46 68/108/46 69/110/46
f 62/102/47 61/101/47 76/125/47 77/126/47
f 55/93/48 54/92/48 69/109/48 70/112/48
f 63/103/49 62/102/49 77/126/49 78/127/49
f 56/94/50 55/93/50 70/112/50 71/114/50
f 64/104/51 63/103/51 78/127/51 79/128/51
f 57/95/52 56/94/52 71/114/52 72/116/52
f 50/86/53 350/459/53 65/105/53
f 506/646/54 64/104/54 79/128/54
f 58/96/55 57/95/55 72/116/55 73/118/55
f 51/87/56 50/86/56 65/105/56 66/106/56
f 59/97/57 58/96/57 73/118/57 74/120/57
f 71/115/58 70/113/58 85/136/58 86/137/58
f 79/128/59 78/127/59 93/146/59 94/147/59
f 72/117/60 71/115/60 86/137/60 87/138/60
f 65/105/61 350/459/61 80/129/61
f 506/646/62 79/128/62 94/147/62
f 73/119/63 72/117/63 87/138/63 88/139/63
f 66/106/64 65/105/64 80/129/64 81/130/64
f 74/121/65 73/119/65 88/139/65 89/140/65
f 67/107/66 66/106/66 81/130/66 82/131/66
f 75/123/67 74/121/67 89/140/67 90/142/67
f 68/108/68 67/107/68 82/131/68 83/132/68
f 76/125/69 75/124/69 90/141/69 91/144/69
f 69/110/70 68/108/70 83/132/70 84/134/70
f 77/126/71 76/125/71 91/144/71 92/145/71
f 70/113/72 69/111/72 84/135/72 85/136/72
f 78/127/73 77/126/73 92/145/73 93/146/73
f 90/142/74 89/140/74 104/158/74 105/159/74
f 83/132/75 82/131/75 97/150/75 98/151/75
f 91/143/76 90/142/76 105/159/76 106/160/76
f 84/135/77 83/133/77 98/152/77 99/153/77
f 92/145/78 91/144/78 106/161/78 107/162/78
f 85/136/79 84/135/79 99/153/79 100/154/79
f 93/146/80 92/145/80 107/162/80 108/163/80
f 86/137/81 85/136/81 100/154/81 101/155/81
f 94/147/82 93/146/82 108/163/82 109/164/82
f 87/138/83 86/137/83 101/155/83 102/156/83
f 80/129/84 350/459/84 95/148/84
f 506/646/85 94/147/85 109/164/85
f 88/139/86 87/138/86 102/156/86 103/157/86
f 81/130/87 80/129/87 95/148/87 96/149/87
f 89/140/88 88/139/88 103/157/88 104/158/88
f 82/131/89 81/130/89 96/149/89 97/150/89
f 109/164/90 108/163/90 123/180/90 124/181/90
f 102/156/91 101/155/91 116/172/91 117/173/91
f 95/148/92 350/459/92 110/165/92
f 506/646/93 109/164/93 124/181/93
f 103/157/94 102/156/94 117/173/94 118/174/94
f 96/149/95 95/148/95 110/165/95 111/166/95
f 104/158/96 103/157/96 118/174/96 119/175/96
f 97/150/97 96/149/97 111/166/97 112/167/97
f 105/159/98 104/158/98 119/175/98 120/176/98
f 98/151/99 97/150/99 112/167/99 113/169/99
f 106/160/100 105/159/100 120/176/100 121/177/100
f 99/153/101 98/152/101 113/168/101 114/170/101
f 107/162/102 106/161/102 121/178/102 122/179/102
f 100/154/103 99/153/103 114/170/103 115/171/103
f 108/163/104 107/162/104 122/179/104 123/180/104
f 101/155/105 100/154/105 115/171/105 116/172/105
f 121/177/106 120/176/106 135/193/106 136/194/106
f 114/170/107 113/168/107 128/186/107 129/187/107
f 122/179/108 121/178/108 136/195/108 137/196/108
f 115/171/109 114/170/109 129/187/109 130/188/109
f 123/180/110 122/179/110 137/196/110 138/197/110
f 116/172/111 115/171/111 130/188/111 131/189/111
f 124/181/112 123/180/112 138/197/112 139/198/112
f 117/173/113 116/172/113 131/189/113 132/190/113
f 110/165/114 350/459/114 125/182/114
f 506/646/115 124/181/115 139/198/115
f 118/174/116 117/173/116 132/190/116 133/191/116
f 111/166/117 110/165/117 125/182/117 126/183/117
f 119/175/118 118/174/118 133/191/118 134/192/118
f 112/167/119 111/166/119 126/183/119 127/184/119
f 120/176/120 119/175/120 134/192/120 135/193/120
f 113/169/121 112/167/121 127/184/121 128/185/121
f 125/182/122 350/459/122 140/199/122
f 506/646/123 139/198/123 154/215/123
f 133/191/124 132/190/124 147/207/124 148/208/124
f 126/183/125 125/182/125 140/199/125 141/200/125
f 134/192/126 133/191/126 148/208/126 149/209/126
f 127/184/127 126/183/127 141/200/127 142/201/127
f 135/193/128 134/192/128 149/209/128 150/210/128
f 128/185/129 127/184/129 142/201/129 143/203/129
f 136/194/130 135/193/130 150/210/130 151/212/130
f 129/187/131 128/186/131 143/202/131 144/204/131
f 137/196/132 136/195/132 151/211/132 152/213/132
f 130/188/133 129/187/133 144/204/133 145/205/133
f 138/197/134 137/196/134 152/213/134 153/214/134
f 131/189/135 130/188/135 145/205/135 146/206/135
f 139/198/136 138/197/136 153/214/136 154/215/136
f 132/190/137 131/189/137 146/206/137 147/207/137
f 144/204/138 143/202/138 158/220/138 159/221/138
f 152/213/139 151/211/139 166/229/139 167/230/139
f 145/205/140 144/204/140 159/221/140 160/222/140
f 153/214/141 152/213/141 167/230/141 168/231/141
f 146/206/142 145/205/142 160/222/142 161/223/142
f 154/215/143 153/214/143 168/231/143 169/232/143
f 147/207/144 146/206/144 161/223/144 162/224/144
f 140/199/145 350/459/145 155/216/145
f 506/646/146 154/215/146 169/232/146
f 148/208/147 147/207/147 162/224/147 163/225/147
f 141/200/148 140/199/148 155/216/148 156/217/148
f 149/209/149 148/208/149 163/225/149 164/226/149
f 142/201/150 141/200/150 156/217/150 157/218/150
f 150/210/151 149/209/151 164/226/151 165/227/151
f 143/203/152 142/201/152 157/218/152 158/219/152
f 151/212/153 150/210/153 165/227/153 166/228/153
f 163/225/154 162/224/154 177/242/154 178/243/154
f 156/217/155 155/216/155 170/233/155 171/234/155
f 164/226/156 163/225/156 178/243/156 179/244/156
f 157/218/157 156/217/157 171/234/157 172/235/157
f 165/227/158 164/226/158 179/244/158 180/245/158
f 158/219/159 157/218/159 172/235/159 173/237/159
f 166/228/160 165/227/160 180/245/160 181/247/160
f 159/221/161 158/220/161 173/236/161 174/238/161
f 167/230/162 166/229/162 181/248/162 182/249/162
f 160/222/163 159/221/163 174/238/163 175/240/163
f 168/231/164 167/230/164 182/249/164 183/250/164
f 161/223/165 160/222/165 175/240/165 176/241/165
f 169/232/166 168/231/166 183/250/166 184/251/166
f 162/224/167 161/223/167 176/241/167 177/242/167
f 155/216/168 350/459/168 170/233/168
f 506/646/169 169/232/169 184/251/169
f 182/249/170 181/248/170 196/272/170 197/273/170
f 175/240/171 174/238/171 189/256/171 190/259/171
f 183/250/172 182/249/172 197/273/172 198/274/172
f 176/241/173 175/240/173 190/259/173 191/261/173
f 184/251/174 183/250/174 198/274/174 199/275/174
f 177/242/175 176/241/175 191/261/175 192/263/175
f 170/233/176 350/459/176 185/252/176
f 506/646/177 184/251/177 199/275/177
f 178/243/178 177/242/178 192/263/178 193/265/178
f 171/234/179 170/233/179 185/252/179 186/253/179
f 179/244/180 178/243/180 193/265/180 194/267/180
f 172/235/181 171/234/181 186/253/181 187/254/181
f 180/245/182 179/244/182 194/267/182 195/269/182
f 173/237/183 172/235/183 187/254/183 188/255/183
f 181/248/184 180/246/184 195/271/184 196/272/184
f 174/239/185 173/237/185 188/255/185 189/257/185
f 186/253/186 185/252/186 200/276/186 201/277/186
f 194/268/187 193/266/187 208/286/187 209/287/187
f 187/254/188 186/253/188 201/277/188 202/278/188
f 195/270/189 194/268/189 209/287/189 210/289/189
f 188/255/190 187/254/190 202/278/190 203/279/190
f 196/272/191 195/271/191 210/288/191 211/291/191
f 189/257/192 188/255/192 203/279/192 204/281/192
f 197/273/193 196/272/193 211/291/193 212/292/193
f 190/260/194 189/258/194 204/282/194 205/283/194
f 198/274/195 197/273/195 212/292/195 213/293/195
f 191/262/196 190/260/196 205/283/196 206/284/196
f 199/275/197 198/274/197 213/293/197 214/294/197
f 192/264/198 191/262/198 206/284/198 207/285/198
f 185/252/199 350/459/199 200/276/199
f 506/646/200 199/275/200 214/294/200
f 193/266/201 192/264/201 207/285/201 208/286/201
f 205/283/202 204/282/202 219/300/202 220/301/202
f 213/293/203 212/292/203 227/309/203 228/310/203
f 206/284/204 205/283/204 220/301/204 221/302/204
f 214/294/205 213/293/205 228/310/205 229/311/205
f 207/285/206 206/284/206 221/302/206 222/303/206
f 200/276/207 350/459/207 215/295/207
f 506/646/208 214/294/208 229/311/208
f 208/286/209 207/285/209 222/303/209 223/304/209
f 201/277/210 200/276/210 215/295/210 216/296/210
f 209/287/211 208/286/211 223/304/211 224/305/211
f 202/278/212 201/277/212 216/296/212 217/297/212
f 210/289/213 209/287/213 224/305/213 225/306/213
f 203/279/214 202/278/214 217/297/214 218/298/214
f 211/290/215 210/289/215 225/306/215 226/307/215
f 204/282/216 203/280/216 218/299/216 219/300/216
f 212/292/217 211/291/217 226/308/217 227/309/217
f 224/305/218 223/304/218 238/321/218 239/322/218
f 217/297/219 216/296/219 231/313/219 232/314/219
f 225/306/220 224/305/220 239/322/220 240/323/220
f 218/298/221 217/297/221 232/314/221 233/315/221
f 226/307/222 225/306/222 240/323/222 241/324/222
f 219/300/223 218/299/223 233/316/223 234/317/223
f 227/309/224 226/308/224 241/325/224 242/326/224
f 220/301/225 219/300/225 234/317/225 235/318/225
f 228/310/226 227/309/226 242/326/226 243/327/226
f 221/302/227 220/301/227 235/318/227 236/319/227
f 229/311/228 228/310/228 243/327/228 244/328/228
f 222/303/229 221/302/229 236/319/229 237/320/229
f 215/295/230 350/459/230 230/312/230
f 506/646/231 229/311/231 244/328/231
f 223/304/232 222/303/232 237/320/232 238/321/232
f 216/296/233 215/295/233 230/312/233 231/313/233
f 243/327/234 242/326/234 257/343/234 258/344/234
f 236/319/235 235/318/235 250/335/235 251/336/235
f 244/328/236 243/327/236 258/344/236 259/345/236
f 237/320/237 236/319/237 251/336/237 252/337/237
f 230/312/238 350/459/238 245/329/238
f 506/646/239 244/328/239 259/345/239
f 238/321/240 237/320/240 252/337/240 253/338/240
f 231/313/241 230/312/241 245/329/241 246/330/241
f 239/322/242 238/321/242 253/338/242 254/339/242
f 232/314/243 231/313/243 246/330/243 247/331/243
f 240/323/244 239/322/244 254/339/244 255/340/244
f 233/315/245 232/314/245 247/331/245 248/332/245
f 241/324/246 240/323/246 255/340/246 256/341/246
f 234/317/247 233/316/247 248/333/247 249/334/247
f 242/326/248 241/325/248 256/342/248 257/343/248
f 235/318/249 234/317/249 249/334/249 250/335/249
f 255/340/250 254/339/250 269/356/250 270/357/250
f 248/332/251 247/331/251 262/348/251 263/349/251
f 256/341/252 255/340/252 270/357/252 271/358/252
f 249/334/253 248/333/253 263/350/253 264/351/253
f 257/343/254 256/342/254 271/359/254 272/360/254
f 250/335/255 249/334/255 264/351/255 265/352/255
f 258/344/256 257/343/256 272/360/256 273/361/256
f 251/336/257 250/335/257 265/352/257 266/353/257
f 259/345/258 258/344/258 273/361/258 274/362/258
f 252/337/259 251/336/259 266/353/259 267/354/259
f 245/329/260 350/459/260 260/346/260
f 506/646/261 259/345/261 274/362/261
f 253/338/262 252/337/262 267/354/262 268/355/262
f 246/330/263 245/329/263 260/346/263 261/347/263
f 254/339/264 253/338/264 268/355/264 269/356/264
f 247/331/265 246/330/265 261/347/265 262/348/265
f 274/362/266 273/361/266 288/378/266 289/379/266
f 267/354/267 266/353/267 281/370/267 282/371/267
f 260/346/268 350/459/268 275/363/268
f 506/646/269 274/362/269 289/379/269
f 268/355/270 267/354/270 282/371/270 283/372/270
f 261/347/271 260/346/271 275/363/271 276/364/271
f 269/356/272 268/355/272 283/372/272 284/373/272
f 262/348/273 261/347/273 276/364/273 277/365/273
f 270/357/274 269/356/274 284/373/274 285/374/274
f 263/349/275 262/348/275 277/365/275 278/366/275
f 271/358/276 270/357/276 285/374/276 286/375/276
f 264/351/277 263/350/277 278/367/277 279/368/277
f 272/360/278 271/359/278 286/376/278 287/377/278
f 265/352/279 264/351/279 279/368/279 280/369/279
f 273/361/280 272/360/280 287/377/280 288/378/280
f 266/353/281 265/352/281 280/369/281 281/370/281
f 278/366/282 277/365/282 292/382/282 293/384/282
f 286/375/283 285/374/283 300/392/283 301/394/283
f 279/368/284 278/367/284 293/383/284 294/386/284
f 287/377/285 286/376/285 301/395/285 302/396/285
f 280/369/286 279/368/286 294/386/286 295/387/286
f 288/378/287 287/377/287 302/396/287 303/397/287
f 281/370/288 280/369/288 295/387/288 296/388/288
f 289/379/289 288/378/289 303/397/289 304/398/289
f 282/371/290 281/370/290 296/388/290 297/389/290
f 275/363/291 350/459/291 290/380/291
f 506/646/292 289/379/292 304/398/292
f 283/372/293 282/371/293 297/389/293 298/390/293
f 276/364/294 275/363/294 290/380/294 291/381/294
f 284/373/295 283/372/295 298/390/295 299/391/295
f 277/365/296 276/364/296 291/381/296 292/382/296
f 285/374/297 284/373/297 299/391/297 300/392/297
f 297/389/298 296/388/298 311/408/298 312/410/298
f 290/380/299 350/459/299 305/399/299
f 506/646/300 304/398/300 319/422/300
f 298/390/301 297/389/301 312/410/301 313/412/301
f 291/381/302 290/380/302 305/399/302 306/400/302
f 299/391/303 298/390/303 313/412/303 314/414/303
f 292/382/304 291/381/304 306/400/304 307/401/304
f 300/392/305 299/391/305 314/414/305 315/416/305
f 293/384/306 292/382/306 307/401/306 308/402/306
f 301/395/307 300/393/307 315/417/307 316/419/307
f 294/385/308 293/384/308 308/402/308 309/404/308
f 302/396/309 301/395/309 316/419/309 317/420/309
f 295/387/310 294/386/310 309/403/310 310/406/310
f 303/397/311 302/396/311 317/420/311 318/421/311
f 296/388/312 295/387/312 310/406/312 311/408/312
f 304/398/313 303/397/313 318/421/313 319/422/313
f 316/419/314 315/417/314 330/435/314 331/438/314
f 309/404/315 308/402/315 323/426/315 324/428/315
f 317/420/316 316/419/316 331/438/316 332/439/316
f 310/407/317 309/405/317 324/429/317 325/430/317
f 318/421/318 317/420/318 332/439/318 333/440/318
f 311/409/319 310/407/319 325/430/319 326/431/319
f 319/422/320 318/421/320 333/440/320 334/441/320
f 312/411/321 311/409/321 326/431/321 327/432/321
f 305/399/322 350/459/322 320/423/322
f 506/646/323 319/422/323 334/441/323
f 313/413/324 312/411/324 327/432/324 328/433/324
f 306/400/325 305/399/325 320/423/325 321/424/325
f 314/415/326 313/413/326 328/433/326 329/434/326
f 307/401/327 306/400/327 321/424/327 322/425/327
f 315/418/328 314/415/328 329/434/328 330/436/328
f 308/402/329 307/401/329 322/425/329 323/426/329
f 320/423/330 350/459/330 335/442/330
f 506/646/331 334/441/331 349/458/331
f 328/433/332 327/432/332 342/450/332 343/451/332
f 321/424/333 320/423/333 335/442/333 336/443/333
f 329/434/334 328/433/334 343/451/334 344/452/334
f 322/425/335 321/424/335 336/443/335 337/444/335
f 330/436/336 329/434/336 344/452/336 345/453/336
f 323/426/337 322/425/337 337/444/337 338/446/337
f 331/437/338 330/436/338 345/453/338 346/455/338
f 324/429/339 323/427/339 338/445/339 339/447/339
f 332/439/340 331/438/340 346/454/340 347/456/340
f 325/430/341 324/429/341 339/447/341 340/448/341
f 333/440/342 332/439/342 347/456/342 348/457/342
f 326/431/343 325/430/343 340/448/343 341/449/343
f 334/441/344 333/440/344 348/457/344 349/458/344
f 327/432/345 326/431/345 341/449/345 342/450/345
f 339/447/346 338/445/346 354/464/346 355/465/346
f 347/456/347 346/454/347 362/473/347 363/474/347
f 340/448/348 339/447/348 355/465/348 356/466/348
f 348/457/349 347/456/349 363/474/349 364/475/349
f 341/449/350 340/448/350 356/466/350 357/467/350
f 349/458/351 348/457/351 364/475/351 365/476/351
f 342/450/352 341/449/352 357/467/352 358/468/352
f 335/442/353 350/459/353 351/460/353
f 506/646/354 349/458/354 365/476/354
f 343/451/355 342/450/355 358/468/355 359/469/355
f 336/443/356 335/442/356 351/460/356 352/461/356
f 344/452/357 343/451/357 359/469/357 360/470/357
f 337/444/358 336/443/358 352/461/358 353/462/358
f 345/453/359 344/452/359 360/470/359 361/471/359
f 338/446/360 337/444/360 353/462/360 354/463/360
f 346/455/361 345/453/361 361/471/361 362/472/361
f 359/469/362 358/468/362 373/485/362 374/486/362
f 352/461/363 351/460/363 366/477/363 367/478/363
f 360/470/364 359/469/364 374/486/364 375/487/364
f 353/462/365 352/461/365 367/478/365 368/479/365
f 361/471/366 360/470/366 375/487/366 376/488/366
f 354/463/367 353/462/367 368/479/367 369/480/367
f 362/472/368 361/471/368 376/488/368 377/490/368
f 355/465/369 354/464/369 369/481/369 370/482/369
f 363/474/370 362/473/370 377/489/370 378/491/370
f 356/466/371 355/465/371 370/482/371 371/483/371
f 364/475/372 363/474/372 378/491/372 379/492/372
f 357/467/373 356/466/373 371/483/373 372/484/373
f 365/476/374 364/475/374 379/492/374 380/493/374
f 358/468/375 357/467/375 372/484/375 373/485/375
f 351/460/376 350/459/376 366/477/376
f 506/646/377 365/476/377 380/493/377
f 378/491/378 377/489/378 392/507/378 393/508/378
f 371/483/379 370/482/379 385/499/379 386/500/379
f 379/492/380 378/491/380 393/508/380 394/509/380
f 372/484/381 371/483/381 386/500/381 387/501/381
f 380/493/382 379/492/382 394/509/382 395/510/382
f 373/485/383 372/484/383 387/501/383 388/502/383
f 366/477/384 350/459/384 381/494/384
f 506/646/385 380/493/385 395/510/385
f 374/486/386 373/485/386 388/502/386 389/503/386
f 367/478/387 366/477/387 381/494/387 382/495/387
f 375/487/388 374/486/388 389/503/388 390/504/388
f 368/479/389 367/478/389 382/495/389 383/496/389
f 376/488/390 375/487/390 390/504/390 391/505/390
f 369/480/391 368/479/391 383/496/391 384/497/391
f 377/490/392 376/488/392 391/505/392 392/506/392
f 370/482/393 369/481/393 384/498/393 385/499/393
f 390/504/394 389/503/394 404/520/394 405/521/394
f 383/496/395 382/495/395 397/512/395 398/513/395
f 391/505/396 390/504/396 405/521/396 406/522/396
f 384/497/397 383/496/397 398/513/397 399/514/397
f 392/506/398 391/505/398 406/522/398 407/523/398
f 385/499/399 384/498/399 399/515/399 400/516/399
f 393/508/400 392/507/400 407/524/400 408/525/400
f 386/500/401 385/499/401 400/516/401 401/517/401
f 394/509/402 393/508/402 408/525/402 409/526/402
f 387/501/403 386/500/403 401/517/403 402/518/403
f 395/510/404 394/509/404 409/526/404 410/527/404
f 388/502/405 387/501/405 402/518/405 403/519/405
f 381/494/406 350/459/406 396/511/406
f 506/646/407 395/510/407 410/527/407
f 389/503/408 388/502/408 403/519/408 404/520/408
f 382/495/409 381/494/409 396/511/409 397/512/409
f 409/526/410 408/525/410 423/544/410 424/545/410
f 402/518/411 401/517/411 416/535/411 417/536/411
f 410/527/412 409/526/412 424/545/412 425/546/412
f 403/519/413 402/518/413 417/536/413 418/537/413
f 396/511/414 350/459/414 411/528/414
f 506/646/415 410/527/415 425/546/415
f 404/520/416 403/519/416 418/537/416 419/538/416
f 397/512/417 396/511/417 411/528/417 412/529/417
f 405/521/418 404/520/418 419/538/418 420/539/418
f 398/513/419 397/512/419 412/529/419 413/530/419
f 406/522/420 405/521/420 420/539/420 421/540/420
f 399/514/421 398/513/421 413/530/421 414/532/421
f 407/523/422 406/522/422 421/540/422 422/542/422
f 400/516/423 399/515/423 414/531/423 415/534/423
f 408/525/424 407/524/424 422/543/424 423/544/424
f 401/517/425 400/516/425 415/534/425 416/535/425
f 413/530/426 412/529/426 427/548/426 428/549/426
f 421/540/427 420/539/427 435/562/427 436/564/427
f 414/532/428 413/530/428 428/549/428 429/550/428
f 422/543/429 421/541/429 436/566/429 437/567/429
f 415/533/430 414/532/430 429/550/430 430/552/430
f 423/544/431 422/543/431 437/567/431 438/568/431
f 416/535/432 415/534/432 430/551/432 431/554/432
f 424/545/433 423/544/433 438/568/433 439/569/433
f 417/536/434 416/535/434 431/554/434 432/556/434
f 425/546/435 424/545/435 439/569/435 440/570/435
f 418/537/436 417/536/436 432/556/436 433/558/436
f 411/528/437 350/459/437 426/547/437
f 506/646/438 425/546/438 440/570/438
f 419/538/439 418/537/439 433/558/439 434/560/439
f 412/529/440 411/528/440 426/547/440 427/548/440
f 420/539/441 419/538/441 434/560/441 435/562/441
f 432/557/442 431/555/442 446/578/442 447/579/442
f 440/570/443 439/569/443 454/588/443 455/589/443
f 433/559/444 432/557/444 447/579/444 448/580/444
f 426/547/445 350/459/445 441/571/445
f 506/646/446 440/570/446 455/589/446
f 434/561/447 433/559/447 448/580/447 449/581/447
f 427/548/448 426/547/448 441/571/448 442/572/448
f 435/563/449 434/561/449 449/581/449 450/582/449
f 428/549/450 427/548/450 442/572/450 443/573/450
f 436/565/451 435/563/451 450/582/451 451/584/451
f 429/550/452 428/549/452 443/573/452 444/574/452
f 437/567/453 436/566/453 451/583/453 452/586/453
f 430/552/454 429/550/454 444/574/454 445/576/454
f 438/568/455 437/567/455 452/586/455 453/587/455
f 431/555/456 430/553/456 445/577/456 446/578/456
f 439/569/457 438/568/457 453/587/457 454/588/457
f 451/584/458 450/582/458 465/600/458 466/601/458
f 444/574/459 443/573/459 458/592/459 459/593/459
f 452/585/460 451/584/460 466/601/460 467/602/460
f 445/577/461 444/575/461 459/594/461 460/595/461
f 453/587/462 452/586/462 467/603/462 468/604/462
f 446/578/463 445/577/463 460/595/463 461/596/463
f 454/588/464 453/587/464 468/604/464 469/605/464
f 447/579/465 446/578/465 461/596/465 462/597/465
f 455/589/466 454/588/466 469/605/466 470/606/466
f 448/580/467 447/579/467 462/597/467 463/598/467
f 441/571/468 350/459/468 456/590/468
f 506/646/469 455/589/469 470/606/469
f 449/581/470 448/580/470 463/598/470 464/599/470
f 442/572/471 441/571/471 456/590/471 457/591/471
f 450/582/472 449/581/472 464/599/472 465/600/472
f 443/573/473 442/572/473 457/591/473 458/592/473
f 470/606/474 469/605/474 484/622/474 485/623/474
f 463/598/475 462/597/475 477/614/475 478/615/475
f 456/590/476 350/459/476 471/607/476
f 506/646/477 470/606/477 485/623/477
f 464/599/478 463/598/478 478/615/478 479/616/478
f 457/591/479 456/590/479 471/607/479 472/608/479
f 465/600/480 464/599/480 479/616/480 480/617/480
f 458/592/481 457/591/481 472/608/481 473/609/481
f 466/601/482 465/600/482 480/617/482 481/618/482
f 459/593/483 458/592/483 473/609/483 474/610/483
f 467/602/484 466/601/484 481/618/484 482/619/484
f 460/595/485 459/594/485 474/611/485 475/612/485
f 468/604/486 467/603/486 482/620/486 483/621/486
f 461/596/487 460/595/487 475/612/487 476/613/487
f 469/605/488 468/604/488 483/621/488 484/622/488
f 462/597/489 461/596/489 476/613/489 477/614/489
f 474/610/490 473/609/490 488/626/490 489/627/490
f 482/619/491 481/618/491 496/635/491 497/636/491
f 475/612/492 474/611/492 489/628/492 490/629/492
f 483/621/493 482/620/493 497/637/493 498/638/493
f 476/613/494 475/612/494 490/629/494 491/630/494
f 484/622/495 483/621/495 498/638/495 499/639/495
f 477/614/496 476/613/496 491/630/496 492/631/496
f 485/623/497 484/622/497 499/639/497 500/640/497
f 478/615/498 477/614/498 492/631/498 493/632/498
f 471/607/499 350/459/499 486/624/499
f 506/646/500 485/623/500 500/640/500
f 479/616/501 478/615/501 493/632/501 494/633/501
f 472/608/502 471/607/502 486/624/502 487/625/502
f 480/617/503 479/616/503 494/633/503 495/634/503
f 473/609/504 472/608/504 487/625/504 488/626/504
f 481/618/505 480/617/505 495/634/505 496/635/505
f 493/632/506 492/631/506 31/64/506 501/641/506
f 486/624/507 350/459/507 25/57/507
f 506/646/508 500/640/508 505/645/508
f 494/633/509 493/632/509 501/641/509 502/642/509
f 487/625/510 486/624/510 25/57/510 26/58/510
f 495/634/511 494/633/511 502/642/511 503/643/511
f 488/626/512 487/625/512 26/58/512 27/59/512
f 496/635/513 495/634/513 503/643/513 32/65/513
f 489/627/514 488/626/514 27/59/514 28/60/514
f 497/636/515 496/635/515 32/65/515 33/66/515
f 490/629/516 489/628/516 28/61/516 29/62/516
f 498/638/517 497/637/517 33/67/517 34/68/517
f 491/630/518 490/629/518 29/62/518 30/63/518
f 499/639/519 498/638/519 34/68/519 504/644/519
f 492/631/520 491/630/520 30/63/520 31/64/520
f 500/640/521 499/639/521 504/644/521 505/645/521
