# Blender 3.1.0
# www.blender.org
mtllib cornell_box_Custom.mtl
o Plane
v -2.000000 -2.000000 0.000000
v 2.000000 -2.000000 0.000000
v -2.000000 2.000000 0.000000
v 2.000000 2.000000 0.000000
v -2.000000 -2.000000 0.000000
v 2.000000 -2.000000 0.000000
v -2.000000 2.000000 0.000000
v 2.000000 2.000000 0.000000
v -2.000000 -2.000000 4.000000
v 2.000000 -2.000000 4.000000
v -0.400000 0.400000 4.000000
v 0.400000 0.400000 4.000000
v -1.324264 0.265153 0.000000
v -1.324264 0.265153 2.489266
v -1.634847 1.424264 0.000000
v -1.634847 1.424264 2.489266
v -0.165153 0.575736 0.000000
v -0.165153 0.575736 2.489266
v -0.475736 1.734847 0.000000
v -0.475736 1.734847 2.489266
v -2.000000 2.000000 4.000000
v 0.400000 -0.400000 4.000000
v -0.400000 -0.400000 4.000000
v 2.000000 2.000000 4.000000
v 0.500000 -0.829296 1.738293
v 0.500000 -0.665152 1.688501
v 0.500000 -0.513876 1.607642
v 0.500000 -0.381282 1.498825
v 0.500000 -0.272464 1.366230
v 0.500000 -0.191605 1.214954
v 0.500000 -0.141813 1.050810
v 0.500000 -0.272464 0.393982
v 0.500000 -0.381282 0.261388
v 0.500000 -0.513876 0.152570
v 0.533303 -0.832576 1.738293
v 0.565326 -0.671586 1.688501
v 0.594838 -0.523217 1.607642
v 0.620706 -0.393170 1.498825
v 0.641935 -0.286443 1.366230
v 0.657710 -0.207139 1.214954
v 0.667424 -0.158303 1.050810
v 0.670704 -0.141813 0.880106
v 0.667424 -0.158303 0.709402
v 0.657710 -0.207138 0.545258
v 0.641935 -0.286443 0.393982
v 0.620706 -0.393170 0.261388
v 0.594838 -0.523217 0.152570
v 0.565326 -0.671586 0.071711
v 0.533303 -0.832576 0.021919
v 0.565326 -0.842290 1.738293
v 0.628141 -0.690641 1.688501
v 0.686032 -0.550880 1.607642
v 0.736773 -0.428379 1.498825
v 0.778416 -0.327845 1.366230
v 0.809359 -0.253141 1.214954
v 0.828414 -0.207139 1.050810
v 0.834848 -0.191606 0.880106
v 0.828414 -0.207139 0.709402
v 0.809359 -0.253141 0.545258
v 0.778416 -0.327845 0.393982
v 0.736773 -0.428379 0.261388
v 0.686031 -0.550880 0.152570
v 0.628141 -0.690641 0.071711
v 0.565326 -0.842290 0.021919
v 0.594838 -0.858065 1.738293
v 0.686032 -0.721584 1.688501
v 0.770076 -0.595803 1.607642
v 0.843741 -0.485554 1.498825
v 0.904197 -0.395076 1.366230
v 0.949120 -0.327845 1.214954
v 0.976783 -0.286443 1.050810
v 0.986124 -0.272464 0.880106
v 0.976783 -0.286443 0.709402
v 0.949120 -0.327844 0.545258
v 0.904197 -0.395076 0.393982
v 0.843741 -0.485554 0.261388
v 0.770076 -0.595803 0.152570
v 0.686032 -0.721584 0.071711
v 0.594838 -0.858065 0.021919
v 0.620706 -0.879294 1.738293
v 0.736773 -0.763227 1.688501
v 0.843741 -0.656258 1.607642
v 0.937500 -0.562500 1.498825
v 1.014445 -0.485555 1.366230
v 1.071621 -0.428379 1.214954
v 1.106830 -0.393170 1.050810
v 1.118718 -0.381282 0.880106
v 1.106830 -0.393170 0.709402
v 1.071621 -0.428379 0.545258
v 1.014446 -0.485555 0.393982
v 0.937500 -0.562500 0.261388
v 0.843741 -0.656258 0.152570
v 0.736773 -0.763227 0.071711
v 0.620706 -0.879294 0.021919
v 0.641935 -0.905162 1.738293
v 0.778416 -0.813968 1.688501
v 0.904197 -0.729924 1.607642
v 1.014446 -0.656258 1.498825
v 1.104924 -0.595803 1.366230
v 1.172155 -0.550880 1.214954
v 1.213556 -0.523217 1.050810
v 1.227536 -0.513876 0.880106
v 1.213556 -0.523217 0.709402
v 1.172156 -0.550880 0.545258
v 1.104924 -0.595803 0.393982
v 1.014446 -0.656258 0.261388
v 0.904197 -0.729924 0.152570
v 0.778416 -0.813968 0.071711
v 0.641935 -0.905162 0.021919
v 0.657710 -0.934674 1.738293
v 0.809359 -0.871859 1.688501
v 0.949120 -0.813969 1.607642
v 1.071621 -0.763227 1.498825
v 1.172155 -0.721584 1.366230
v 1.246859 -0.690641 1.214954
v 1.292861 -0.671586 1.050810
v 1.308394 -0.665152 0.880106
v 1.292861 -0.671586 0.709402
v 1.246859 -0.690641 0.545258
v 1.172155 -0.721584 0.393982
v 1.071621 -0.763227 0.261388
v 0.949120 -0.813969 0.152570
v 0.809359 -0.871859 0.071711
v 0.657710 -0.934674 0.021919
v 0.667424 -0.966697 1.738293
v 0.828414 -0.934675 1.688501
v 0.976783 -0.905162 1.607642
v 1.106830 -0.879294 1.498825
v 1.213556 -0.858065 1.366230
v 1.292861 -0.842290 1.214954
v 1.341697 -0.832576 1.050810
v 1.358187 -0.829296 0.880106
v 1.341697 -0.832576 0.709402
v 1.292861 -0.842290 0.545258
v 1.213556 -0.858065 0.393982
v 1.106830 -0.879294 0.261388
v 0.976783 -0.905162 0.152570
v 0.828414 -0.934675 0.071711
v 0.667424 -0.966697 0.021919
v 0.670704 -1.000000 1.738293
v 0.834848 -1.000000 1.688501
v 0.986124 -1.000000 1.607642
v 1.118718 -1.000000 1.498825
v 1.227536 -1.000000 1.366230
v 1.308394 -1.000000 1.214954
v 1.358187 -1.000000 1.050810
v 1.375000 -1.000000 0.880106
v 1.358187 -1.000000 0.709402
v 1.308394 -1.000000 0.545258
v 1.227536 -1.000000 0.393982
v 1.118718 -1.000000 0.261388
v 0.986124 -1.000000 0.152570
v 0.834848 -1.000000 0.071711
v 0.670704 -1.000000 0.021919
v 0.667424 -1.033303 1.738293
v 0.828414 -1.065326 1.688501
v 0.976783 -1.094838 1.607642
v 1.106830 -1.120706 1.498825
v 1.213556 -1.141935 1.366230
v 1.292861 -1.157710 1.214954
v 1.341697 -1.167424 1.050810
v 1.358187 -1.170704 0.880106
v 1.341697 -1.167424 0.709402
v 1.292861 -1.157710 0.545258
v 1.213556 -1.141935 0.393982
v 1.106830 -1.120706 0.261388
v 0.976783 -1.094838 0.152570
v 0.828414 -1.065326 0.071711
v 0.667424 -1.033303 0.021919
v 0.657710 -1.065326 1.738293
v 0.809359 -1.128141 1.688501
v 0.949120 -1.186032 1.607642
v 1.071621 -1.236773 1.498825
v 1.172155 -1.278416 1.366230
v 1.246859 -1.309359 1.214954
v 1.292861 -1.328414 1.050810
v 1.308394 -1.334848 0.880106
v 1.292861 -1.328414 0.709402
v 1.246859 -1.309359 0.545258
v 1.172155 -1.278416 0.393982
v 1.071621 -1.236773 0.261388
v 0.949120 -1.186032 0.152570
v 0.809359 -1.128141 0.071711
v 0.657710 -1.065326 0.021919
v 0.641935 -1.094838 1.738293
v 0.778416 -1.186032 1.688501
v 0.904197 -1.270076 1.607642
v 1.014445 -1.343742 1.498825
v 1.104924 -1.404197 1.366230
v 1.172155 -1.449120 1.214954
v 1.213556 -1.476783 1.050810
v 1.227535 -1.486124 0.880106
v 1.213556 -1.476783 0.709402
v 1.172155 -1.449120 0.545258
v 1.104924 -1.404197 0.393982
v 1.014445 -1.343742 0.261388
v 0.904197 -1.270076 0.152570
v 0.778416 -1.186032 0.071711
v 0.641935 -1.094838 0.021919
v 0.620706 -1.120706 1.738293
v 0.736773 -1.236773 1.688501
v 0.843741 -1.343742 1.607642
v 0.937500 -1.437500 1.498825
v 1.014445 -1.514445 1.366230
v 1.071621 -1.571621 1.214954
v 1.106830 -1.606830 1.050810
v 1.118718 -1.618718 0.880106
v 1.106830 -1.606830 0.709402
v 1.071621 -1.571621 0.545258
v 1.014445 -1.514445 0.393982
v 0.937500 -1.437500 0.261388
v 0.843741 -1.343742 0.152570
v 0.736773 -1.236773 0.071711
v 0.620706 -1.120706 0.021919
v 0.594838 -1.141935 1.738293
v 0.686031 -1.278416 1.688501
v 0.770076 -1.404197 1.607642
v 0.843741 -1.514446 1.498825
v 0.904197 -1.604924 1.366230
v 0.949120 -1.672155 1.214954
v 0.976783 -1.713556 1.050810
v 0.986123 -1.727536 0.880106
v 0.976783 -1.713556 0.709402
v 0.949120 -1.672156 0.545258
v 0.904197 -1.604924 0.393982
v 0.843741 -1.514446 0.261388
v 0.770076 -1.404197 0.152570
v 0.686032 -1.278416 0.071711
v 0.594838 -1.141935 0.021919
v 0.565325 -1.157710 1.738293
v 0.628141 -1.309359 1.688501
v 0.686031 -1.449120 1.607642
v 0.736773 -1.571621 1.498825
v 0.778416 -1.672155 1.366230
v 0.809359 -1.746859 1.214954
v 0.828414 -1.792861 1.050810
v 0.834848 -1.808394 0.880106
v 0.828414 -1.792861 0.709402
v 0.809359 -1.746859 0.545258
v 0.778416 -1.672155 0.393982
v 0.736773 -1.571621 0.261388
v 0.686031 -1.449120 0.152570
v 0.628141 -1.309359 0.071711
v 0.565325 -1.157710 0.021919
v 0.533303 -1.167424 1.738293
v 0.565325 -1.328414 1.688501
v 0.594838 -1.476783 1.607642
v 0.620706 -1.606830 1.498825
v 0.641935 -1.713556 1.366230
v 0.657710 -1.792861 1.214954
v 0.667424 -1.841697 1.050810
v 0.670704 -1.858187 0.880106
v 0.667424 -1.841697 0.709402
v 0.657710 -1.792862 0.545258
v 0.641935 -1.713556 0.393982
v 0.620706 -1.606830 0.261388
v 0.594838 -1.476783 0.152570
v 0.565325 -1.328414 0.071711
v 0.533303 -1.167424 0.021919
v 0.500000 -1.170704 1.738293
v 0.500000 -1.334848 1.688501
v 0.500000 -1.486124 1.607642
v 0.500000 -1.618718 1.498825
v 0.500000 -1.727536 1.366230
v 0.500000 -1.808395 1.214954
v 0.500000 -1.858187 1.050810
v 0.500000 -1.874999 0.880106
v 0.500000 -1.858187 0.709402
v 0.500000 -1.808395 0.545258
v 0.500000 -1.727536 0.393982
v 0.500000 -1.618718 0.261388
v 0.500000 -1.486124 0.152570
v 0.500000 -1.334848 0.071711
v 0.500000 -1.170704 0.021919
v 0.466697 -1.167424 1.738293
v 0.434674 -1.328414 1.688501
v 0.405162 -1.476783 1.607642
v 0.379294 -1.606830 1.498825
v 0.358065 -1.713556 1.366230
v 0.342290 -1.792861 1.214954
v 0.332576 -1.841697 1.050810
v 0.329296 -1.858186 0.880106
v 0.332576 -1.841697 0.709402
v 0.342290 -1.792862 0.545258
v 0.358065 -1.713556 0.393982
v 0.379294 -1.606830 0.261388
v 0.405162 -1.476783 0.152570
v 0.434674 -1.328414 0.071711
v 0.466697 -1.167424 0.021919
v 0.434674 -1.157710 1.738293
v 0.371859 -1.309359 1.688501
v 0.313968 -1.449120 1.607642
v 0.263227 -1.571621 1.498825
v 0.221584 -1.672155 1.366230
v 0.190641 -1.746859 1.214954
v 0.171586 -1.792861 1.050810
v 0.165152 -1.808394 0.880106
v 0.171586 -1.792861 0.709402
v 0.190641 -1.746859 0.545258
v 0.221584 -1.672155 0.393982
v 0.263227 -1.571621 0.261388
v 0.313968 -1.449120 0.152570
v 0.371859 -1.309359 0.071711
v 0.434674 -1.157710 0.021919
v 0.405162 -1.141935 1.738293
v 0.313968 -1.278416 1.688501
v 0.229924 -1.404197 1.607642
v 0.156258 -1.514445 1.498825
v 0.095803 -1.604924 1.366230
v 0.050880 -1.672155 1.214954
v 0.023217 -1.713556 1.050810
v 0.013876 -1.727535 0.880106
v 0.023217 -1.713556 0.709402
v 0.050880 -1.672155 0.545258
v 0.095803 -1.604924 0.393982
v 0.156258 -1.514445 0.261388
v 0.229924 -1.404197 0.152570
v 0.313968 -1.278416 0.071711
v 0.405162 -1.141935 0.021919
v 0.379294 -1.120706 1.738293
v 0.263227 -1.236773 1.688501
v 0.156258 -1.343741 1.607642
v 0.062500 -1.437500 1.498825
v -0.014445 -1.514445 1.366230
v -0.071621 -1.571621 1.214954
v -0.106830 -1.606830 1.050810
v -0.118718 -1.618718 0.880106
v -0.106830 -1.606830 0.709402
v -0.071621 -1.571621 0.545258
v -0.014446 -1.514445 0.393982
v 0.062500 -1.437500 0.261388
v 0.156258 -1.343741 0.152570
v 0.263227 -1.236773 0.071711
v 0.379294 -1.120706 0.021919
v 0.358065 -1.094838 1.738293
v 0.221584 -1.186032 1.688501
v 0.095803 -1.270076 1.607642
v -0.014446 -1.343741 1.498825
v -0.104924 -1.404197 1.366230
v -0.172155 -1.449120 1.214954
v -0.213556 -1.476783 1.050810
v -0.227536 -1.486123 0.880106
v -0.213556 -1.476783 0.709402
v -0.172156 -1.449120 0.545258
v -0.104924 -1.404197 0.393982
v -0.014446 -1.343741 0.261388
v 0.095803 -1.270076 0.152570
v 0.221584 -1.186032 0.071711
v 0.358065 -1.094838 0.021919
v 0.500000 -1.000000 1.755106
v 0.342290 -1.065326 1.738293
v 0.190641 -1.128141 1.688501
v 0.050880 -1.186031 1.607642
v -0.071621 -1.236773 1.498825
v -0.172155 -1.278416 1.366230
v -0.246859 -1.309359 1.214954
v -0.292861 -1.328414 1.050810
v -0.308394 -1.334847 0.880106
v -0.292861 -1.328414 0.709402
v -0.246859 -1.309359 0.545258
v -0.172155 -1.278416 0.393982
v -0.071621 -1.236773 0.261388
v 0.050880 -1.186031 0.152570
v 0.190641 -1.128141 0.071711
v 0.342290 -1.065326 0.021919
v 0.332576 -1.033303 1.738293
v 0.171586 -1.065326 1.688501
v 0.023217 -1.094838 1.607642
v -0.106830 -1.120706 1.498825
v -0.213556 -1.141935 1.366230
v -0.292861 -1.157710 1.214954
v -0.341697 -1.167424 1.050810
v -0.358186 -1.170704 0.880106
v -0.341697 -1.167424 0.709402
v -0.292861 -1.157710 0.545258
v -0.213556 -1.141935 0.393982
v -0.106830 -1.120706 0.261388
v 0.023217 -1.094838 0.152570
v 0.171586 -1.065326 0.071711
v 0.332576 -1.033303 0.021919
v 0.329296 -1.000000 1.738293
v 0.165152 -1.000000 1.688501
v 0.013876 -1.000000 1.607642
v -0.118718 -1.000000 1.498825
v -0.227536 -1.000000 1.366230
v -0.308394 -1.000000 1.214954
v -0.358187 -1.000000 1.050810
v -0.374999 -1.000000 0.880106
v -0.358187 -1.000000 0.709402
v -0.308395 -1.000000 0.545258
v -0.227536 -1.000000 0.393982
v -0.118718 -1.000000 0.261388
v 0.013876 -1.000000 0.152570
v 0.165152 -1.000000 0.071711
v 0.329296 -1.000000 0.021919
v 0.332576 -0.966697 1.738293
v 0.171586 -0.934674 1.688501
v 0.023217 -0.905162 1.607642
v -0.106830 -0.879294 1.498825
v -0.213556 -0.858065 1.366230
v -0.292861 -0.842290 1.214954
v -0.341697 -0.832576 1.050810
v -0.358186 -0.829296 0.880106
v -0.341697 -0.832576 0.709402
v -0.292861 -0.842290 0.545258
v -0.213556 -0.858065 0.393982
v -0.106830 -0.879294 0.261388
v 0.023217 -0.905162 0.152570
v 0.171586 -0.934675 0.071711
v 0.332576 -0.966697 0.021919
v 0.342290 -0.934675 1.738293
v 0.190641 -0.871859 1.688501
v 0.050880 -0.813969 1.607642
v -0.071621 -0.763227 1.498825
v -0.172155 -0.721584 1.366230
v -0.246859 -0.690641 1.214954
v -0.292861 -0.671586 1.050810
v -0.308394 -0.665152 0.880106
v -0.292861 -0.671586 0.709402
v -0.246859 -0.690641 0.545258
v -0.172155 -0.721584 0.393982
v -0.071621 -0.763227 0.261388
v 0.050880 -0.813969 0.152570
v 0.190641 -0.871859 0.071711
v 0.342290 -0.934675 0.021919
v 0.358065 -0.905162 1.738293
v 0.221584 -0.813969 1.688501
v 0.095803 -0.729924 1.607642
v -0.014446 -0.656259 1.498825
v -0.104924 -0.595803 1.366230
v -0.172155 -0.550880 1.214954
v -0.213556 -0.523217 1.050810
v -0.227535 -0.513876 0.880106
v -0.213556 -0.523217 0.709402
v -0.172155 -0.550880 0.545258
v -0.104924 -0.595803 0.393982
v -0.014446 -0.656259 0.261388
v 0.095803 -0.729924 0.152570
v 0.221584 -0.813969 0.071711
v 0.358065 -0.905162 0.021919
v 0.379294 -0.879294 1.738293
v 0.263227 -0.763227 1.688501
v 0.156259 -0.656259 1.607642
v 0.062500 -0.562500 1.498825
v -0.014445 -0.485555 1.366230
v -0.071621 -0.428379 1.214954
v -0.106830 -0.393170 1.050810
v -0.118718 -0.381282 0.880106
v -0.106830 -0.393170 0.709402
v -0.071621 -0.428379 0.545258
v -0.014445 -0.485555 0.393982
v 0.062500 -0.562500 0.261388
v 0.156259 -0.656259 0.152570
v 0.263227 -0.763227 0.071711
v 0.379294 -0.879294 0.021919
v 0.405162 -0.858065 1.738293
v 0.313968 -0.721584 1.688501
v 0.229924 -0.595803 1.607642
v 0.156258 -0.485555 1.498825
v 0.095803 -0.395076 1.366230
v 0.050880 -0.327845 1.214954
v 0.023217 -0.286444 1.050810
v 0.013877 -0.272465 0.880106
v 0.023217 -0.286444 0.709402
v 0.050880 -0.327845 0.545258
v 0.095803 -0.395076 0.393982
v 0.156258 -0.485555 0.261388
v 0.229924 -0.595803 0.152570
v 0.313968 -0.721584 0.071711
v 0.405162 -0.858065 0.021919
v 0.434674 -0.842290 1.738293
v 0.371859 -0.690641 1.688501
v 0.313969 -0.550880 1.607642
v 0.263227 -0.428379 1.498825
v 0.221584 -0.327845 1.366230
v 0.190641 -0.253141 1.214954
v 0.171586 -0.207139 1.050810
v 0.165153 -0.191606 0.880106
v 0.171586 -0.207139 0.709402
v 0.190641 -0.253141 0.545258
v 0.221584 -0.327845 0.393982
v 0.263227 -0.428379 0.261388
v 0.313969 -0.550880 0.152570
v 0.371859 -0.690641 0.071711
v 0.434674 -0.842290 0.021919
v 0.466697 -0.832576 1.738293
v 0.434674 -0.671586 1.688501
v 0.405162 -0.523217 1.607642
v 0.379294 -0.393170 1.498825
v 0.358065 -0.286444 1.366230
v 0.342290 -0.207139 1.214954
v 0.332576 -0.158303 1.050810
v 0.329296 -0.141814 0.880106
v 0.332576 -0.158303 0.709402
v 0.342290 -0.207139 0.545258
v 0.358065 -0.286444 0.393982
v 0.379294 -0.393170 0.261388
v 0.405162 -0.523217 0.152570
v 0.434674 -0.671586 0.071711
v 0.466697 -0.832576 0.021919
v 0.500000 -0.125001 0.880106
v 0.500000 -0.141813 0.709402
v 0.500000 -0.191606 0.545258
v 0.500000 -0.665152 0.071711
v 0.500000 -0.829296 0.021919
v 0.500000 -1.000000 0.005106
vn -0.0000 -0.0000 2.0000
vn -1.9319 -0.5176 -0.0000
vn -0.0000 -0.0000 -2.0000
vn -2.0000 -0.0000 -0.0000
vn 2.0000 -0.0000 -0.0000
vn -0.0000 -2.0000 -0.0000
vn -0.5176 1.9319 -0.0000
vn 1.9319 0.5176 -0.0000
vn 0.5176 -1.9319 -0.0000
vn -0.0000 0.4019 -1.9592
vn -0.0000 0.7758 -1.8434
vn 0.1513 0.7609 -1.8434
vn 0.0784 0.3942 -1.9592
vn -0.0000 2.0000 -0.0000
vn -0.0000 1.9620 0.3879
vn 0.3828 1.9243 0.3879
vn 0.3902 1.9616 -0.0000
vn -0.0000 0.4019 1.9592
vn 0.0784 0.3942 1.9592
vn -0.0000 1.9620 -0.3879
vn 0.3828 1.9243 -0.3879
vn -0.0000 0.7758 1.8434
vn 0.1513 0.7609 1.8434
vn -0.0000 1.8495 -0.7611
vn 0.3608 1.8140 -0.7611
vn -0.0000 1.1195 1.6573
vn 0.2184 1.0980 1.6573
vn -0.0000 1.6667 -1.1055
vn 0.3252 1.6347 -1.1055
vn -0.0000 1.4203 1.4081
vn 0.2771 1.3930 1.4081
vn -0.0000 1.4203 -1.4081
vn 0.2771 1.3930 -1.4081
vn -0.0000 1.6667 1.1055
vn 0.3252 1.6347 1.1055
vn -0.0000 1.1195 -1.6573
vn 0.2184 1.0980 -1.6573
vn -0.0000 1.8495 0.7611
vn 0.3608 1.8140 0.7611
vn 0.4284 1.0343 -1.6573
vn 0.2969 0.7167 -1.8434
vn 0.7078 1.7087 0.7611
vn 0.7508 1.8127 0.3879
vn 0.1538 0.3713 -1.9592
vn 0.7654 1.8478 -0.0000
vn 0.1538 0.3713 1.9592
vn 0.7508 1.8127 -0.3879
vn 0.2969 0.7167 1.8434
vn 0.7078 1.7087 -0.7611
vn 0.4284 1.0343 1.6573
vn 0.6378 1.5398 -1.1055
vn 0.5435 1.3122 1.4081
vn 0.5435 1.3122 -1.4081
vn 0.6378 1.5398 1.1055
vn 0.4310 0.6450 1.8434
vn 0.6220 0.9309 1.6573
vn 1.0275 1.5378 -0.7611
vn 0.9260 1.3858 -1.1055
vn 0.7891 1.1809 1.4081
vn 0.7891 1.1809 -1.4081
vn 0.9260 1.3858 1.1055
vn 0.6220 0.9309 -1.6573
vn 1.0275 1.5378 0.7611
vn 0.4310 0.6450 -1.8434
vn 1.0900 1.6314 0.3879
vn 0.2233 0.3342 -1.9592
vn 1.1111 1.6629 -0.0000
vn 0.2233 0.3342 1.9592
vn 1.0900 1.6314 -0.3879
vn 1.3078 1.3078 0.7611
vn 1.3874 1.3874 0.3879
vn 0.5486 0.5486 -1.8434
vn 0.2842 0.2842 -1.9592
vn 1.4142 1.4142 -0.0000
vn 0.2842 0.2842 1.9592
vn 1.3874 1.3874 -0.3879
vn 0.5486 0.5486 1.8434
vn 1.3078 1.3078 -0.7611
vn 0.7916 0.7916 1.6573
vn 1.1785 1.1785 -1.1055
vn 1.0043 1.0043 1.4081
vn 1.0043 1.0043 -1.4081
vn 1.1785 1.1785 1.1055
vn 0.7916 0.7916 -1.6573
vn 1.5378 1.0275 -0.7611
vn 1.3858 0.9260 -1.1055
vn 0.9309 0.6220 1.6573
vn 1.1809 0.7891 1.4081
vn 1.1809 0.7891 -1.4081
vn 1.3858 0.9260 1.1055
vn 0.9309 0.6220 -1.6573
vn 1.5378 1.0275 0.7611
vn 0.6450 0.4310 -1.8434
vn 1.6314 1.0900 0.3879
vn 0.3342 0.2233 -1.9592
vn 1.6629 1.1111 -0.0000
vn 0.3342 0.2233 1.9592
vn 1.6314 1.0900 -0.3879
vn 0.6450 0.4310 1.8434
vn 0.7167 0.2969 -1.8434
vn 0.3713 0.1538 -1.9592
vn 1.8127 0.7508 0.3879
vn 1.8478 0.7654 -0.0000
vn 0.3713 0.1538 1.9592
vn 1.8127 0.7508 -0.3879
vn 0.7167 0.2969 1.8434
vn 1.7087 0.7078 -0.7611
vn 1.0343 0.4284 1.6573
vn 1.5398 0.6378 -1.1055
vn 1.3122 0.5435 1.4081
vn 1.3122 0.5435 -1.4081
vn 1.5398 0.6378 1.1055
vn 1.0343 0.4284 -1.6573
vn 1.7087 0.7078 0.7611
vn 1.6347 0.3252 -1.1055
vn 1.3930 0.2771 -1.4081
vn 1.3930 0.2771 1.4081
vn 1.6347 0.3252 1.1055
vn 1.0980 0.2184 -1.6573
vn 1.8140 0.3608 0.7611
vn 0.7609 0.1513 -1.8434
vn 1.9243 0.3828 0.3879
vn 0.3942 0.0784 -1.9592
vn 1.9616 0.3902 -0.0000
vn 0.3942 0.0784 1.9592
vn 1.9243 0.3828 -0.3879
vn 0.7609 0.1513 1.8434
vn 1.8140 0.3608 -0.7611
vn 1.0980 0.2184 1.6573
vn 0.4019 -0.0000 1.9592
vn 0.4019 -0.0000 -1.9592
vn 1.9620 -0.0000 -0.3879
vn 0.7758 -0.0000 1.8434
vn 1.8495 -0.0000 -0.7611
vn 1.1195 -0.0000 1.6573
vn 1.6667 -0.0000 -1.1055
vn 1.4203 -0.0000 1.4081
vn 1.4203 -0.0000 -1.4081
vn 1.6667 -0.0000 1.1055
vn 1.1196 -0.0000 -1.6573
vn 1.8495 -0.0000 0.7611
vn 0.7758 -0.0000 -1.8434
vn 1.9620 -0.0000 0.3879
vn 1.3930 -0.2771 1.4081
vn 1.6347 -0.3252 1.1055
vn 1.3930 -0.2771 -1.4081
vn 1.0980 -0.2184 -1.6573
vn 1.8140 -0.3608 0.7611
vn 0.7609 -0.1513 -1.8434
vn 1.9243 -0.3828 0.3879
vn 0.3942 -0.0784 -1.9592
vn 1.9616 -0.3902 -0.0000
vn 0.3942 -0.0784 1.9592
vn 1.9243 -0.3828 -0.3879
vn 0.7609 -0.1513 1.8434
vn 1.8140 -0.3608 -0.7611
vn 1.0980 -0.2184 1.6573
vn 1.6347 -0.3252 -1.1055
vn 1.8478 -0.7654 -0.0000
vn 1.8127 -0.7508 -0.3879
vn 0.3713 -0.1538 1.9592
vn 0.7167 -0.2969 1.8434
vn 1.7087 -0.7078 -0.7611
vn 1.0343 -0.4284 1.6573
vn 1.5398 -0.6378 -1.1055
vn 1.3122 -0.5435 1.4081
vn 1.3122 -0.5435 -1.4081
vn 1.5398 -0.6378 1.1055
vn 1.0343 -0.4284 -1.6573
vn 1.7087 -0.7078 0.7611
vn 0.7167 -0.2969 -1.8434
vn 1.8127 -0.7508 0.3879
vn 0.3713 -0.1538 -1.9592
vn 1.1809 -0.7891 -1.4081
vn 0.9309 -0.6220 -1.6573
vn 1.3858 -0.9260 1.1055
vn 1.5378 -1.0275 0.7611
vn 0.6450 -0.4310 -1.8434
vn 1.6314 -1.0900 0.3879
vn 0.3342 -0.2233 -1.9592
vn 1.6629 -1.1111 -0.0000
vn 0.3342 -0.2233 1.9592
vn 1.6314 -1.0900 -0.3879
vn 0.6450 -0.4310 1.8434
vn 1.5378 -1.0275 -0.7611
vn 0.9309 -0.6220 1.6573
vn 1.3858 -0.9260 -1.1055
vn 1.1809 -0.7891 1.4081
vn 0.2842 -0.2842 1.9592
vn 0.5486 -0.5486 1.8434
vn 1.3874 -1.3874 -0.3879
vn 1.3078 -1.3078 -0.7611
vn 0.7916 -0.7916 1.6573
vn 1.1785 -1.1785 -1.1055
vn 1.0043 -1.0043 1.4081
vn 1.0043 -1.0043 -1.4081
vn 1.1785 -1.1785 1.1055
vn 0.7916 -0.7916 -1.6573
vn 1.3078 -1.3078 0.7611
vn 0.5486 -0.5486 -1.8434
vn 1.3874 -1.3874 0.3879
vn 0.2842 -0.2842 -1.9592
vn 1.4142 -1.4142 -0.0000
vn 0.9260 -1.3858 1.1055
vn 1.0275 -1.5378 0.7611
vn 0.6220 -0.9309 -1.6573
vn 0.4310 -0.6450 -1.8434
vn 1.0900 -1.6314 0.3879
vn 0.2233 -0.3342 -1.9592
vn 1.1111 -1.6629 -0.0000
vn 0.2233 -0.3342 1.9592
vn 1.0900 -1.6314 -0.3879
vn 0.4310 -0.6450 1.8434
vn 1.0275 -1.5378 -0.7611
vn 0.6220 -0.9309 1.6573
vn 0.9260 -1.3858 -1.1055
vn 0.7891 -1.1809 1.4081
vn 0.7891 -1.1809 -1.4081
vn 0.7508 -1.8127 -0.3879
vn 0.7078 -1.7087 -0.7611
vn 0.2969 -0.7167 1.8434
vn 0.4284 -1.0343 1.6573
vn 0.6378 -1.5398 -1.1055
vn 0.5435 -1.3122 1.4081
vn 0.5435 -1.3122 -1.4081
vn 0.6378 -1.5398 1.1055
vn 0.4284 -1.0343 -1.6573
vn 0.7078 -1.7087 0.7611
vn 0.2969 -0.7167 -1.8434
vn 0.7508 -1.8127 0.3879
vn 0.1538 -0.3713 -1.9592
vn 0.7654 -1.8478 -0.0000
vn 0.1538 -0.3713 1.9592
vn 0.2184 -1.0980 -1.6573
vn 0.1513 -0.7609 -1.8434
vn 0.3608 -1.8140 0.7611
vn 0.3828 -1.9243 0.3879
vn 0.0784 -0.3942 -1.9592
vn 0.3902 -1.9616 -0.0000
vn 0.0784 -0.3942 1.9592
vn 0.3828 -1.9243 -0.3879
vn 0.1513 -0.7609 1.8434
vn 0.3608 -1.8140 -0.7611
vn 0.2184 -1.0980 1.6573
vn 0.3252 -1.6347 -1.1055
vn 0.2771 -1.3930 1.4081
vn 0.2771 -1.3930 -1.4081
vn 0.3252 -1.6347 1.1055
vn -0.0000 -1.8495 -0.7611
vn -0.0000 -1.6667 -1.1055
vn -0.0000 -1.1195 1.6573
vn -0.0000 -1.4203 1.4081
vn -0.0000 -1.4203 -1.4081
vn -0.0000 -1.6667 1.1055
vn -0.0000 -1.1195 -1.6573
vn -0.0000 -1.8495 0.7611
vn -0.0000 -0.7758 -1.8434
vn -0.0000 -1.9620 0.3879
vn -0.0000 -0.4019 -1.9592
vn -0.0000 -0.4019 1.9592
vn -0.0000 -1.9620 -0.3879
vn -0.0000 -0.7758 1.8434
vn -0.1513 -0.7609 -1.8434
vn -0.0784 -0.3942 -1.9592
vn -0.3828 -1.9243 0.3879
vn -0.3902 -1.9616 -0.0000
vn -0.0784 -0.3942 1.9592
vn -0.3828 -1.9243 -0.3879
vn -0.1513 -0.7609 1.8434
vn -0.3608 -1.8140 -0.7611
vn -0.2184 -1.0980 1.6573
vn -0.3252 -1.6347 -1.1055
vn -0.2771 -1.3930 1.4081
vn -0.2771 -1.3930 -1.4081
vn -0.3252 -1.6347 1.1055
vn -0.2184 -1.0980 -1.6573
vn -0.3608 -1.8140 0.7611
vn -0.4284 -1.0343 1.6573
vn -0.5435 -1.3122 1.4081
vn -0.6378 -1.5398 -1.1055
vn -0.5435 -1.3122 -1.4081
vn -0.6378 -1.5398 1.1055
vn -0.4284 -1.0343 -1.6573
vn -0.7078 -1.7087 0.7611
vn -0.2969 -0.7167 -1.8434
vn -0.7508 -1.8127 0.3879
vn -0.1538 -0.3713 -1.9592
vn -0.7654 -1.8478 -0.0000
vn -0.1538 -0.3713 1.9592
vn -0.7508 -1.8127 -0.3879
vn -0.2969 -0.7167 1.8434
vn -0.7078 -1.7087 -0.7611
vn -1.0900 -1.6314 0.3879
vn -1.1111 -1.6629 -0.0000
vn -0.2233 -0.3342 1.9592
vn -0.2233 -0.3342 -1.9592
vn -1.0900 -1.6314 -0.3879
vn -0.4310 -0.6450 1.8434
vn -1.0275 -1.5378 -0.7611
vn -0.6220 -0.9309 1.6573
vn -0.9260 -1.3858 -1.1055
vn -0.7891 -1.1809 1.4081
vn -0.7891 -1.1809 -1.4081
vn -0.9260 -1.3858 1.1055
vn -0.6220 -0.9309 -1.6573
vn -1.0275 -1.5378 0.7611
vn -0.4310 -0.6450 -1.8434
vn -1.1785 -1.1785 -1.1055
vn -1.0043 -1.0043 -1.4081
vn -1.0043 -1.0043 1.4081
vn -1.1785 -1.1785 1.1055
vn -0.7916 -0.7916 -1.6573
vn -1.3078 -1.3078 0.7611
vn -0.5486 -0.5486 -1.8434
vn -1.3874 -1.3874 0.3879
vn -0.2842 -0.2842 -1.9592
vn -1.4142 -1.4142 -0.0000
vn -0.2842 -0.2842 1.9592
vn -1.3874 -1.3874 -0.3879
vn -0.5486 -0.5486 1.8434
vn -1.3078 -1.3078 -0.7611
vn -0.7916 -0.7916 1.6573
vn -0.3342 -0.2233 1.9592
vn -0.3342 -0.2233 -1.9592
vn -1.6629 -1.1111 -0.0000
vn -1.6314 -1.0900 -0.3879
vn -0.6450 -0.4310 1.8434
vn -1.5378 -1.0275 -0.7611
vn -0.9309 -0.6220 1.6573
vn -1.3858 -0.9260 -1.1055
vn -1.1809 -0.7891 1.4081
vn -1.1809 -0.7891 -1.4081
vn -1.3858 -0.9260 1.1055
vn -0.9309 -0.6220 -1.6573
vn -1.5378 -1.0275 0.7611
vn -0.6450 -0.4310 -1.8434
vn -1.6314 -1.0900 0.3879
vn -1.3122 -0.5435 1.4081
vn -1.5398 -0.6378 1.1055
vn -1.3122 -0.5435 -1.4081
vn -1.0343 -0.4284 -1.6573
vn -1.7087 -0.7078 0.7611
vn -0.7167 -0.2969 -1.8434
vn -1.8127 -0.7508 0.3879
vn -0.3713 -0.1538 -1.9592
vn -1.8478 -0.7654 -0.0000
vn -0.3713 -0.1538 1.9592
vn -1.8127 -0.7508 -0.3879
vn -0.7167 -0.2969 1.8434
vn -1.7087 -0.7078 -0.7611
vn -1.0343 -0.4284 1.6573
vn -1.5398 -0.6378 -1.1055
vn -1.9616 -0.3902 -0.0000
vn -1.9243 -0.3828 -0.3879
vn -0.3942 -0.0784 1.9592
vn -0.7609 -0.1513 1.8434
vn -1.8140 -0.3608 -0.7611
vn -1.0980 -0.2184 1.6573
vn -1.6347 -0.3252 -1.1055
vn -1.3930 -0.2771 1.4081
vn -1.3930 -0.2771 -1.4081
vn -1.6347 -0.3252 1.1055
vn -1.0980 -0.2184 -1.6573
vn -1.8140 -0.3608 0.7611
vn -0.7609 -0.1513 -1.8434
vn -1.9243 -0.3828 0.3879
vn -0.3942 -0.0784 -1.9592
vn -1.4203 -0.0000 -1.4081
vn -1.1196 -0.0000 -1.6573
vn -1.6667 -0.0000 1.1055
vn -1.8495 -0.0000 0.7611
vn -0.7758 -0.0000 -1.8434
vn -1.9620 -0.0000 0.3879
vn -0.4019 -0.0000 -1.9592
vn -0.4019 -0.0000 1.9592
vn -1.9620 -0.0000 -0.3879
vn -0.7758 -0.0000 1.8434
vn -1.8495 -0.0000 -0.7611
vn -1.1195 -0.0000 1.6573
vn -1.6667 -0.0000 -1.1055
vn -1.4203 -0.0000 1.4081
vn -1.9243 0.3828 -0.3879
vn -1.8140 0.3608 -0.7611
vn -0.7609 0.1513 1.8434
vn -1.0980 0.2184 1.6573
vn -1.6347 0.3252 -1.1055
vn -1.3930 0.2771 1.4081
vn -1.3930 0.2771 -1.4081
vn -1.6347 0.3252 1.1055
vn -1.0980 0.2184 -1.6573
vn -1.8140 0.3608 0.7611
vn -0.7609 0.1513 -1.8434
vn -1.9243 0.3828 0.3879
vn -0.3942 0.0784 -1.9592
vn -1.9616 0.3902 -0.0000
vn -0.3942 0.0784 1.9592
vn -1.0343 0.4284 -1.6573
vn -0.7167 0.2969 -1.8434
vn -1.7087 0.7078 0.7611
vn -1.8127 0.7508 0.3879
vn -0.3713 0.1538 -1.9592
vn -1.8478 0.7654 -0.0000
vn -0.3713 0.1538 1.9592
vn -1.8127 0.7508 -0.3879
vn -0.7167 0.2969 1.8434
vn -1.7087 0.7078 -0.7611
vn -1.0343 0.4284 1.6573
vn -1.5398 0.6378 -1.1055
vn -1.3122 0.5435 1.4081
vn -1.3122 0.5435 -1.4081
vn -1.5398 0.6378 1.1055
vn -0.6450 0.4310 1.8434
vn -0.9309 0.6220 1.6573
vn -1.5378 1.0275 -0.7611
vn -1.3858 0.9260 -1.1055
vn -1.1809 0.7891 1.4081
vn -1.1809 0.7891 -1.4081
vn -1.3858 0.9260 1.1055
vn -0.9309 0.6220 -1.6573
vn -1.5378 1.0275 0.7611
vn -0.6450 0.4310 -1.8434
vn -1.6314 1.0900 0.3879
vn -0.3342 0.2233 -1.9592
vn -1.6629 1.1111 -0.0000
vn -0.3342 0.2233 1.9592
vn -1.6314 1.0900 -0.3879
vn -1.3078 1.3078 0.7611
vn -1.3874 1.3874 0.3879
vn -0.5486 0.5486 -1.8434
vn -0.2842 0.2842 -1.9592
vn -1.4142 1.4142 -0.0000
vn -0.2842 0.2842 1.9592
vn -1.3874 1.3874 -0.3879
vn -0.5486 0.5486 1.8434
vn -1.3078 1.3078 -0.7611
vn -0.7916 0.7916 1.6573
vn -1.1785 1.1785 -1.1055
vn -1.0043 1.0043 1.4081
vn -1.0043 1.0043 -1.4081
vn -1.1785 1.1785 1.1055
vn -0.7916 0.7916 -1.6573
vn -1.0275 1.5378 -0.7611
vn -0.9260 1.3858 -1.1055
vn -0.6220 0.9309 1.6573
vn -0.7891 1.1809 1.4081
vn -0.7891 1.1809 -1.4081
vn -0.9260 1.3858 1.1055
vn -0.6220 0.9309 -1.6573
vn -1.0275 1.5378 0.7611
vn -0.4310 0.6450 -1.8434
vn -1.0900 1.6314 0.3879
vn -0.2233 0.3342 -1.9592
vn -1.1111 1.6629 -0.0000
vn -0.2233 0.3342 1.9592
vn -1.0900 1.6314 -0.3879
vn -0.4310 0.6450 1.8434
vn -0.2969 0.7167 -1.8434
vn -0.1538 0.3713 -1.9592
vn -0.7508 1.8127 0.3879
vn -0.7654 1.8478 -0.0000
vn -0.1538 0.3713 1.9592
vn -0.7508 1.8127 -0.3879
vn -0.2969 0.7167 1.8434
vn -0.7078 1.7087 -0.7611
vn -0.4284 1.0343 1.6573
vn -0.6378 1.5398 -1.1055
vn -0.5435 1.3122 1.4081
vn -0.5435 1.3122 -1.4081
vn -0.6378 1.5398 1.1055
vn -0.4284 1.0343 -1.6573
vn -0.7078 1.7087 0.7611
vn -0.2184 1.0980 1.6573
vn -0.2771 1.3930 1.4081
vn -0.3252 1.6347 -1.1055
vn -0.2771 1.3930 -1.4081
vn -0.3252 1.6347 1.1055
vn -0.2184 1.0980 -1.6573
vn -0.3608 1.8140 0.7611
vn -0.1513 0.7609 -1.8434
vn -0.3828 1.9243 0.3879
vn -0.0784 0.3942 -1.9592
vn -0.3902 1.9616 -0.0000
vn -0.0784 0.3942 1.9592
vn -0.3828 1.9243 -0.3879
vn -0.1513 0.7609 1.8434
vn -0.3608 1.8140 -0.7611
vt 0.005990 0.673425
vt 0.572383 0.685405
vt 0.333717 0.673425
vt 0.572383 0.685405
vt 0.005990 0.345698
vt 0.572383 0.685405
vt 0.333717 0.345698
vt 0.572383 0.685405
vt 0.572383 0.685405
vt 0.663863 0.345698
vt 0.572383 0.685405
vt 0.345698 0.005990
vt 0.572383 0.685405
vt 0.345698 0.345698
vt 0.994010 0.005990
vt 0.572383 0.685405
vt 0.663863 0.005990
vt 0.675844 0.005990
vt 0.663863 0.673425
vt 0.333717 0.333717
vt 0.345698 0.333717
vt 0.005990 0.333717
vt 0.202626 0.137081
vt 0.137081 0.137081
vt 0.884423 0.561628
vt 0.675844 0.345698
vt 0.789054 0.875877
vt 0.884423 0.765578
vt 0.675844 0.549648
vt 0.444087 0.798712
vt 0.786124 0.561628
vt 0.884437 0.345698
vt 0.789054 0.777559
vt 0.786124 0.765578
vt 0.884437 0.549648
vt 0.345769 0.798712
vt 0.675844 0.561628
vt 0.774157 0.345698
vt 0.887372 0.875877
vt 0.675844 0.765578
vt 0.774157 0.549648
vt 0.444087 0.897030
vt 0.786138 0.345698
vt 0.774143 0.561628
vt 0.887372 0.777559
vt 0.786138 0.549648
vt 0.774143 0.765578
vt 0.345769 0.897030
vt 0.345698 0.673425
vt 0.994010 0.333717
vt 0.333717 0.005990
vt 0.137081 0.202626
vt 0.202626 0.202626
vt 0.663863 0.333717
vt 0.675844 0.333717
vt 0.005990 0.005990
vt 0.496123 0.739263
vt 0.483030 0.742335
vt 0.470963 0.745166
vt 0.460387 0.747648
vt 0.160055 0.786791
vt 0.157917 0.775927
vt 0.156328 0.763533
vt 0.155350 0.750084
vt 0.157917 0.696269
vt 0.160055 0.685405
vt 0.446459 0.744256
vt 0.435738 0.742502
vt 0.497008 0.741858
vt 0.484766 0.747426
vt 0.473483 0.752556
vt 0.463594 0.757054
vt 0.150687 0.786791
vt 0.146902 0.775927
vt 0.144089 0.763533
vt 0.142357 0.750084
vt 0.141772 0.736098
vt 0.142357 0.722112
vt 0.144089 0.708663
vt 0.146902 0.696269
vt 0.150687 0.685405
vt 0.443900 0.753859
vt 0.433728 0.750046
vt 0.422122 0.745697
vt 0.409529 0.740977
vt 0.498382 0.744231
vt 0.487461 0.752079
vt 0.477396 0.759313
vt 0.142147 0.786791
vt 0.468575 0.765653
vt 0.461335 0.770856
vt 0.136859 0.775927
vt 0.132930 0.763533
vt 0.130511 0.750084
vt 0.129694 0.736098
vt 0.130511 0.722112
vt 0.132930 0.708663
vt 0.136859 0.696269
vt 0.447095 0.767475
vt 0.142147 0.685405
vt 0.439518 0.762778
vt 0.430284 0.757054
vt 0.419750 0.750523
vt 0.408319 0.743437
vt 0.500192 0.746290
vt 0.491013 0.756118
vt 0.482553 0.765176
vt 0.475137 0.773115
vt 0.128175 0.775927
vt 0.469052 0.779631
vt 0.099126 0.775927
vt 0.123281 0.763533
vt 0.103591 0.763533
vt 0.120268 0.750084
vt 0.106341 0.750084
vt 0.119250 0.736098
vt 0.107269 0.736098
vt 0.120268 0.722112
vt 0.106341 0.722112
vt 0.123281 0.708663
vt 0.103591 0.708663
vt 0.128175 0.696269
vt 0.099126 0.696269
vt 0.439995 0.776756
vt 0.433479 0.770670
vt 0.425540 0.763255
vt 0.416482 0.754795
vt 0.406653 0.745615
vt 0.502370 0.747956
vt 0.495284 0.759386
vt 0.488754 0.769920
vt 0.483030 0.779154
vt 0.085155 0.786791
vt 0.478332 0.786731
vt 0.089763 0.775927
vt 0.093188 0.763533
vt 0.095297 0.750084
vt 0.096009 0.736098
vt 0.095297 0.722112
vt 0.093188 0.708663
vt 0.431220 0.784472
vt 0.089763 0.696269
vt 0.085155 0.685405
vt 0.426017 0.777233
vt 0.419677 0.768411
vt 0.412443 0.758346
vt 0.404594 0.747426
vt 0.504831 0.749165
vt 0.500111 0.761758
vt 0.495761 0.773364
vt 0.491948 0.783537
vt 0.076185 0.786791
vt 0.079217 0.775927
vt 0.081469 0.763533
vt 0.082856 0.750084
vt 0.083324 0.736098
vt 0.082856 0.722112
vt 0.081469 0.708663
vt 0.079217 0.696269
vt 0.076185 0.685405
vt 0.417417 0.782213
vt 0.412920 0.772324
vt 0.407789 0.761042
vt 0.402222 0.748800
vt 0.507480 0.749871
vt 0.505308 0.763143
vt 0.503306 0.775374
vt 0.066554 0.786791
vt 0.501551 0.786095
vt 0.067891 0.775927
vt 0.068884 0.763533
vt 0.069496 0.750084
vt 0.069703 0.736098
vt 0.069496 0.722112
vt 0.068884 0.708663
vt 0.067891 0.696269
vt 0.066554 0.685405
vt 0.408012 0.785421
vt 0.405530 0.774844
vt 0.402699 0.762778
vt 0.399627 0.749685
vt 0.510216 0.750046
vt 0.510675 0.763487
vt 0.511098 0.775874
vt 0.511468 0.786731
vt 0.056630 0.786791
vt 0.056222 0.775927
vt 0.055918 0.763533
vt 0.055732 0.750084
vt 0.055669 0.736098
vt 0.055732 0.722112
vt 0.055918 0.708663
vt 0.056222 0.696269
vt 0.056630 0.685405
vt 0.398161 0.786732
vt 0.397791 0.775874
vt 0.397368 0.763487
vt 0.396909 0.750046
vt 0.512934 0.749685
vt 0.516006 0.762778
vt 0.518837 0.774844
vt 0.046795 0.786791
vt 0.521319 0.785421
vt 0.044657 0.775927
vt 0.043069 0.763533
vt 0.042090 0.750084
vt 0.041760 0.736098
vt 0.042090 0.722112
vt 0.043069 0.708663
vt 0.044657 0.696269
vt 0.388244 0.786095
vt 0.046795 0.685405
vt 0.389999 0.775374
vt 0.392001 0.763143
vt 0.394173 0.749871
vt 0.515529 0.748800
vt 0.521096 0.761042
vt 0.526227 0.772324
vt 0.530724 0.782213
vt 0.037428 0.786791
vt 0.033642 0.775927
vt 0.030829 0.763533
vt 0.029097 0.750084
vt 0.028512 0.736098
vt 0.029097 0.722112
vt 0.030829 0.708663
vt 0.033642 0.696269
vt 0.037428 0.685405
vt 0.378642 0.783537
vt 0.382454 0.773364
vt 0.386804 0.761758
vt 0.391524 0.749165
vt 0.517901 0.747426
vt 0.525750 0.758346
vt 0.532983 0.768411
vt 0.028887 0.786791
vt 0.539324 0.777233
vt 0.023600 0.775927
vt 0.544527 0.784472
vt 0.019671 0.763533
vt 0.017251 0.750084
vt 0.016434 0.736098
vt 0.017251 0.722112
vt 0.019671 0.708663
vt 0.023600 0.696269
vt 0.365025 0.786731
vt 0.028887 0.685405
vt 0.369723 0.779154
vt 0.375447 0.769920
vt 0.381977 0.759386
vt 0.389063 0.747956
vt 0.519960 0.745615
vt 0.529789 0.754795
vt 0.538847 0.763255
vt 0.546786 0.770670
vt 0.014916 0.775927
vt 0.553302 0.776756
vt 0.769017 0.868080
vt 0.010022 0.763533
vt 0.773434 0.855686
vt 0.007008 0.750084
vt 0.776155 0.842237
vt 0.005990 0.736098
vt 0.777073 0.828251
vt 0.007008 0.722112
vt 0.776155 0.814265
vt 0.010022 0.708663
vt 0.773434 0.800817
vt 0.014916 0.696269
vt 0.769017 0.788422
vt 0.355745 0.779631
vt 0.361830 0.773115
vt 0.369246 0.765176
vt 0.377706 0.756118
vt 0.386886 0.746290
vt 0.521626 0.743437
vt 0.533057 0.750523
vt 0.543591 0.757054
vt 0.552824 0.762778
vt 0.755052 0.878944
vt 0.560402 0.767475
vt 0.759587 0.868080
vt 0.762956 0.855686
vt 0.765031 0.842237
vt 0.765732 0.828251
vt 0.765031 0.814265
vt 0.762956 0.800817
vt 0.348028 0.770856
vt 0.759587 0.788422
vt 0.755053 0.777559
vt 0.355268 0.765653
vt 0.364090 0.759313
vt 0.374154 0.752079
vt 0.385075 0.744231
vt 0.522835 0.740977
vt 0.535429 0.745697
vt 0.547035 0.750046
vt 0.557207 0.753859
vt 0.746042 0.878944
vt 0.748992 0.868080
vt 0.751183 0.855686
vt 0.752533 0.842237
vt 0.752989 0.828251
vt 0.752533 0.814265
vt 0.751183 0.800817
vt 0.748992 0.788422
vt 0.746042 0.777559
vt 0.350287 0.757054
vt 0.360176 0.752556
vt 0.371459 0.747426
vt 0.383701 0.741858
vt 0.523541 0.738327
vt 0.536813 0.740500
vt 0.549045 0.742502
vt 0.559766 0.744256
vt 0.736387 0.878944
vt 0.737639 0.868080
vt 0.738569 0.855686
vt 0.739141 0.842237
vt 0.739335 0.828251
vt 0.739141 0.814265
vt 0.738569 0.800817
vt 0.737639 0.788422
vt 0.736387 0.777559
vt 0.347080 0.747648
vt 0.357656 0.745166
vt 0.369723 0.742335
vt 0.382816 0.739263
vt 0.523717 0.735591
vt 0.537158 0.735133
vt 0.549545 0.734710
vt 0.560402 0.734339
vt 0.726459 0.878944
vt 0.725964 0.868080
vt 0.725596 0.855686
vt 0.725370 0.842237
vt 0.725294 0.828251
vt 0.725370 0.814265
vt 0.725596 0.800817
vt 0.725964 0.788422
vt 0.726459 0.777559
vt 0.345769 0.737797
vt 0.356626 0.737427
vt 0.369013 0.737004
vt 0.382454 0.736545
vt 0.523355 0.732873
vt 0.536448 0.729801
vt 0.548515 0.726970
vt 0.559091 0.724489
vt 0.716638 0.878944
vt 0.714416 0.868080
vt 0.712765 0.855686
vt 0.711749 0.842237
vt 0.711406 0.828251
vt 0.711749 0.814265
vt 0.712765 0.800817
vt 0.714416 0.788422
vt 0.716638 0.777559
vt 0.346405 0.727880
vt 0.357126 0.729635
vt 0.369358 0.731637
vt 0.382630 0.733809
vt 0.522470 0.730278
vt 0.534712 0.724711
vt 0.545995 0.719580
vt 0.555884 0.715083
vt 0.707303 0.878944
vt 0.703440 0.868080
vt 0.700569 0.855686
vt 0.698801 0.842237
vt 0.698204 0.828251
vt 0.698801 0.814265
vt 0.700569 0.800817
vt 0.703440 0.788422
vt 0.707303 0.777559
vt 0.348964 0.718278
vt 0.359137 0.722090
vt 0.370742 0.726440
vt 0.383336 0.731160
vt 0.521096 0.727906
vt 0.532017 0.720057
vt 0.542082 0.712824
vt 0.698813 0.878944
vt 0.550903 0.706484
vt 0.558143 0.701281
vt 0.693456 0.868080
vt 0.689475 0.855686
vt 0.687024 0.842237
vt 0.686196 0.828251
vt 0.687024 0.814265
vt 0.689475 0.800817
vt 0.693456 0.788422
vt 0.345769 0.704662
vt 0.698813 0.777559
vt 0.353347 0.709359
vt 0.362580 0.715083
vt 0.373114 0.721613
vt 0.384545 0.728699
vt 0.519286 0.725847
vt 0.528465 0.716019
vt 0.536925 0.706961
vt 0.544341 0.699021
vt 0.684848 0.868080
vt 0.550426 0.692506
vt 0.325645 0.775927
vt 0.679911 0.855686
vt 0.330110 0.763533
vt 0.676871 0.842237
vt 0.332860 0.750084
vt 0.675844 0.828251
vt 0.333788 0.736098
vt 0.676871 0.814265
vt 0.332860 0.722112
vt 0.679911 0.800817
vt 0.330110 0.708663
vt 0.684848 0.788422
vt 0.352870 0.695381
vt 0.325645 0.696269
vt 0.359385 0.701467
vt 0.367325 0.708882
vt 0.376383 0.717342
vt 0.386211 0.726522
vt 0.517108 0.724181
vt 0.524194 0.712751
vt 0.530724 0.702216
vt 0.536448 0.692983
vt 0.311674 0.786791
vt 0.541146 0.685405
vt 0.316283 0.775927
vt 0.319707 0.763533
vt 0.321816 0.750084
vt 0.322528 0.736098
vt 0.321816 0.722112
vt 0.319707 0.708663
vt 0.361644 0.687664
vt 0.316283 0.696269
vt 0.311674 0.685405
vt 0.366848 0.694904
vt 0.373188 0.703726
vt 0.380421 0.713790
vt 0.388270 0.724711
vt 0.514647 0.722972
vt 0.519367 0.710379
vt 0.523717 0.698773
vt 0.302704 0.786791
vt 0.527530 0.688600
vt 0.305736 0.775927
vt 0.307988 0.763533
vt 0.309375 0.750084
vt 0.309843 0.736098
vt 0.309375 0.722112
vt 0.307988 0.708663
vt 0.305736 0.696269
vt 0.375447 0.689923
vt 0.302704 0.685405
vt 0.379944 0.699813
vt 0.385075 0.711095
vt 0.390642 0.723337
vt 0.509739 0.736068
vt 0.511998 0.722266
vt 0.514170 0.708994
vt 0.516172 0.696762
vt 0.517927 0.686041
vt 0.293073 0.786791
vt 0.294410 0.775927
vt 0.295404 0.763533
vt 0.296016 0.750084
vt 0.296222 0.736098
vt 0.296016 0.722112
vt 0.295404 0.708663
vt 0.294410 0.696269
vt 0.293073 0.685405
vt 0.384852 0.686716
vt 0.387334 0.697293
vt 0.390165 0.709359
vt 0.393237 0.722452
vt 0.509262 0.722090
vt 0.508803 0.708650
vt 0.508381 0.696263
vt 0.508010 0.685405
vt 0.283149 0.786791
vt 0.282741 0.775927
vt 0.282438 0.763533
vt 0.282251 0.750084
vt 0.282188 0.736098
vt 0.282251 0.722112
vt 0.282438 0.708663
vt 0.282741 0.696269
vt 0.394703 0.685405
vt 0.283149 0.685405
vt 0.395074 0.696263
vt 0.395496 0.708650
vt 0.395955 0.722090
vt 0.506544 0.722452
vt 0.503472 0.709359
vt 0.500641 0.697292
vt 0.498159 0.686716
vt 0.273314 0.786791
vt 0.271176 0.775927
vt 0.269588 0.763533
vt 0.268610 0.750084
vt 0.268279 0.736098
vt 0.268610 0.722112
vt 0.269588 0.708663
vt 0.271176 0.696269
vt 0.273314 0.685405
vt 0.404620 0.686041
vt 0.402865 0.696762
vt 0.400863 0.708994
vt 0.398691 0.722266
vt 0.503949 0.723337
vt 0.498382 0.711095
vt 0.493251 0.699813
vt 0.488754 0.689923
vt 0.263947 0.786791
vt 0.260161 0.775927
vt 0.257349 0.763533
vt 0.255616 0.750084
vt 0.255032 0.736098
vt 0.255616 0.722112
vt 0.257349 0.708663
vt 0.260161 0.696269
vt 0.263947 0.685405
vt 0.414223 0.688600
vt 0.410410 0.698773
vt 0.406060 0.710379
vt 0.401340 0.722972
vt 0.501577 0.724711
vt 0.493728 0.713790
vt 0.486495 0.703726
vt 0.255406 0.786791
vt 0.480154 0.694904
vt 0.474951 0.687664
vt 0.250119 0.775927
vt 0.246190 0.763533
vt 0.243771 0.750084
vt 0.242954 0.736098
vt 0.243771 0.722112
vt 0.246190 0.708663
vt 0.250119 0.696269
vt 0.427839 0.685405
vt 0.255406 0.685405
vt 0.423141 0.692983
vt 0.417417 0.702216
vt 0.410887 0.712751
vt 0.403801 0.724181
vt 0.499518 0.726522
vt 0.489689 0.717342
vt 0.480632 0.708882
vt 0.472692 0.701467
vt 0.241435 0.775927
vt 0.466177 0.695381
vt 0.212386 0.775927
vt 0.236541 0.763533
vt 0.216851 0.763533
vt 0.233527 0.750084
vt 0.219600 0.750084
vt 0.232509 0.736098
vt 0.220529 0.736098
vt 0.233527 0.722112
vt 0.219600 0.722112
vt 0.236541 0.708663
vt 0.216851 0.708663
vt 0.241435 0.696269
vt 0.212386 0.696269
vt 0.437119 0.692506
vt 0.431034 0.699022
vt 0.423618 0.706961
vt 0.415158 0.716019
vt 0.405979 0.725847
vt 0.497852 0.728699
vt 0.486421 0.721613
vt 0.475887 0.715083
vt 0.466654 0.709359
vt 0.198414 0.786791
vt 0.459076 0.704662
vt 0.203023 0.775927
vt 0.206448 0.763533
vt 0.208556 0.750084
vt 0.209268 0.736098
vt 0.208556 0.722112
vt 0.206448 0.708663
vt 0.444836 0.701281
vt 0.203023 0.696269
vt 0.198414 0.685405
vt 0.437596 0.706484
vt 0.428775 0.712824
vt 0.418710 0.720057
vt 0.407789 0.727906
vt 0.496643 0.731160
vt 0.484049 0.726440
vt 0.472443 0.722090
vt 0.462271 0.718278
vt 0.189445 0.786791
vt 0.192476 0.775927
vt 0.194729 0.763533
vt 0.196116 0.750084
vt 0.196584 0.736098
vt 0.196116 0.722112
vt 0.194729 0.708663
vt 0.192476 0.696269
vt 0.189445 0.685405
vt 0.442577 0.715083
vt 0.432688 0.719580
vt 0.421406 0.724711
vt 0.409163 0.730279
vt 0.495937 0.733809
vt 0.482665 0.731637
vt 0.470433 0.729635
vt 0.459712 0.727880
vt 0.179813 0.786791
vt 0.181150 0.775927
vt 0.182144 0.763533
vt 0.182756 0.750084
vt 0.182963 0.736098
vt 0.182756 0.722112
vt 0.182144 0.708663
vt 0.181150 0.696269
vt 0.179813 0.685405
vt 0.445784 0.724489
vt 0.435208 0.726970
vt 0.423141 0.729802
vt 0.410048 0.732874
vt 0.495761 0.736545
vt 0.482320 0.737004
vt 0.469933 0.737427
vt 0.459076 0.737797
vt 0.169889 0.786791
vt 0.169481 0.775927
vt 0.169178 0.763533
vt 0.168991 0.750084
vt 0.168928 0.736098
vt 0.168991 0.722112
vt 0.169178 0.708663
vt 0.169481 0.696269
vt 0.169889 0.685405
vt 0.447095 0.734339
vt 0.436238 0.734710
vt 0.423851 0.735133
vt 0.410410 0.735591
vt 0.155020 0.736098
vt 0.155350 0.722112
vt 0.156328 0.708663
vt 0.423506 0.740500
vt 0.410235 0.738328
vt 0.396432 0.736068
s 0
usemtl Cornell_Box_Material
f 1/1/1 2/3/1 4/7/1 3/5/1
f 13/25/2 14/28/2 16/34/2 15/31/2
f 2/4/1 6/11/1 8/16/1 4/8/1
f 3/6/1 7/13/1 5/9/1 1/2/1
f 4/8/1 8/16/1 7/13/1 3/6/1
f 1/2/1 5/9/1 6/11/1 2/4/1
f 23/53/3 11/23/3 12/24/3 22/52/3
f 6/12/4 10/21/4 24/54/4 8/17/4
f 7/14/5 21/49/5 9/19/5 5/10/5
f 8/18/6 24/55/6 21/50/6 7/15/6
f 15/32/7 16/35/7 20/46/7 19/43/7
f 19/44/8 20/47/8 18/40/8 17/37/8
f 17/38/9 18/41/9 14/29/9 13/26/9
f 15/33/3 19/45/3 17/39/3 13/27/3
f 20/48/1 16/36/1 14/30/1 18/42/1
f 23/53/3 9/20/3 21/51/3 11/23/3
f 22/52/3 10/22/3 9/20/3 23/53/3
f 12/24/3 24/56/3 10/22/3 22/52/3
f 11/23/3 21/51/3 24/56/3 12/24/3
s 1
f 505/645/10 504/644/11 48/84/12 49/85/13
f 501/641/14 31/64/15 41/76/16 42/77/17
f 25/57/18 350/459/1 35/69/19
f 506/646/3 505/645/10 49/85/13
f 502/642/20 501/641/14 42/77/17 43/78/21
f 26/58/22 25/57/18 35/69/19 36/70/23
f 503/643/24 502/642/20 43/78/21 44/79/25
f 27/59/26 26/58/22 36/70/23 37/71/27
f 32/65/28 503/643/24 44/79/25 45/80/29
f 28/60/30 27/59/26 37/71/27 38/72/31
f 33/66/32 32/65/28 45/80/29 46/81/33
f 29/62/34 28/61/30 38/73/31 39/74/35
f 34/68/36 33/67/32 46/82/33 47/83/37
f 30/63/38 29/62/34 39/74/35 40/75/39
f 504/644/11 34/68/36 47/83/37 48/84/12
f 31/64/15 30/63/38 40/75/39 41/76/16
f 48/84/12 47/83/37 62/102/40 63/103/41
f 41/76/16 40/75/39 55/93/42 56/94/43
f 49/85/13 48/84/12 63/103/41 64/104/44
f 42/77/17 41/76/16 56/94/43 57/95/45
f 35/69/19 350/459/1 50/86/46
f 506/646/3 49/85/13 64/104/44
f 43/78/21 42/77/17 57/95/45 58/96/47
f 36/70/23 35/69/19 50/86/46 51/87/48
f 44/79/25 43/78/21 58/96/47 59/97/49
f 37/71/27 36/70/23 51/87/48 52/88/50
f 45/80/29 44/79/25 59/97/49 60/98/51
f 38/72/31 37/71/27 52/88/50 53/90/52
f 46/81/33 45/80/29 60/98/51 61/100/53
f 39/74/35 38/73/31 53/89/52 54/92/54
f 47/83/37 46/82/33 61/101/53 62/102/40
f 40/75/39 39/74/35 54/92/54 55/93/42
f 52/88/50 51/87/48 66/106/55 67/107/56
f 60/98/51 59/97/49 74/120/57 75/122/58
f 53/90/52 52/88/50 67/107/56 68/108/59
f 61/101/53 60/99/51 75/124/58 76/125/60
f 54/91/54 53/90/52 68/108/59 69/110/61
f 62/102/40 61/101/53 76/125/60 77/126/62
f 55/93/42 54/92/54 69/109/61 70/112/63
f 63/103/41 62/102/40 77/126/62 78/127/64
f 56/94/43 55/93/42 70/112/63 71/114/65
f 64/104/44 63/103/41 78/127/64 79/128/66
f 57/95/45 56/94/43 71/114/65 72/116/67
f 50/86/46 350/459/1 65/105/68
f 506/646/3 64/104/44 79/128/66
f 58/96/47 57/95/45 72/116/67 73/118/69
f 51/87/48 50/86/46 65/105/68 66/106/55
f 59/97/49 58/96/47 73/118/69 74/120/57
f 71/115/65 70/113/63 85/136/70 86/137/71
f 79/128/66 78/127/64 93/146/72 94/147/73
f 72/117/67 71/115/65 86/137/71 87/138/74
f 65/105/68 350/459/1 80/129/75
f 506/646/3 79/128/66 94/147/73
f 73/119/69 72/117/67 87/138/74 88/139/76
f 66/106/55 65/105/68 80/129/75 81/130/77
f 74/121/57 73/119/69 88/139/76 89/140/78
f 67/107/56 66/106/55 81/130/77 82/131/79
f 75/123/58 74/121/57 89/140/78 90/142/80
f 68/108/59 67/107/56 82/131/79 83/132/81
f 76/125/60 75/124/58 90/141/80 91/144/82
f 69/110/61 68/108/59 83/132/81 84/134/83
f 77/126/62 76/125/60 91/144/82 92/145/84
f 70/113/63 69/111/61 84/135/83 85/136/70
f 78/127/64 77/126/62 92/145/84 93/146/72
f 90/142/80 89/140/78 104/158/85 105/159/86
f 83/132/81 82/131/79 97/150/87 98/151/88
f 91/143/82 90/142/80 105/159/86 106/160/89
f 84/135/83 83/133/81 98/152/88 99/153/90
f 92/145/84 91/144/82 106/161/89 107/162/91
f 85/136/70 84/135/83 99/153/90 100/154/92
f 93/146/72 92/145/84 107/162/91 108/163/93
f 86/137/71 85/136/70 100/154/92 101/155/94
f 94/147/73 93/146/72 108/163/93 109/164/95
f 87/138/74 86/137/71 101/155/94 102/156/96
f 80/129/75 350/459/1 95/148/97
f 506/646/3 94/147/73 109/164/95
f 88/139/76 87/138/74 102/156/96 103/157/98
f 81/130/77 80/129/75 95/148/97 96/149/99
f 89/140/78 88/139/76 103/157/98 104/158/85
f 82/131/79 81/130/77 96/149/99 97/150/87
f 109/164/95 108/163/93 123/180/100 124/181/101
f 102/156/96 101/155/94 116/172/102 117/173/103
f 95/148/97 350/459/1 110/165/104
f 506/646/3 109/164/95 124/181/101
f 103/157/98 102/156/96 117/173/103 118/174/105
f 96/149/99 95/148/97 110/165/104 111/166/106
f 104/158/85 103/157/98 118/174/105 119/175/107
f 97/150/87 96/149/99 111/166/106 112/167/108
f 105/159/86 104/158/85 119/175/107 120/176/109
f 98/151/88 97/150/87 112/167/108 113/169/110
f 106/160/89 105/159/86 120/176/109 121/177/111
f 99/153/90 98/152/88 113/168/110 114/170/112
f 107/162/91 106/161/89 121/178/111 122/179/113
f 100/154/92 99/153/90 114/170/112 115/171/114
f 108/163/93 107/162/91 122/179/113 123/180/100
f 101/155/94 100/154/92 115/171/114 116/172/102
f 121/177/111 120/176/109 135/193/115 136/194/116
f 114/170/112 113/168/110 128/186/117 129/187/118
f 122/179/113 121/178/111 136/195/116 137/196/119
f 115/171/114 114/170/112 129/187/118 130/188/120
f 123/180/100 122/179/113 137/196/119 138/197/121
f 116/172/102 115/171/114 130/188/120 131/189/122
f 124/181/101 123/180/100 138/197/121 139/198/123
f 117/173/103 116/172/102 131/189/122 132/190/124
f 110/165/104 350/459/1 125/182/125
f 506/646/3 124/181/101 139/198/123
f 118/174/105 117/173/103 132/190/124 133/191/126
f 111/166/106 110/165/104 125/182/125 126/183/127
f 119/175/107 118/174/105 133/191/126 134/192/128
f 112/167/108 111/166/106 126/183/127 127/184/129
f 120/176/109 119/175/107 134/192/128 135/193/115
f 113/169/110 112/167/108 127/184/129 128/185/117
f 125/182/125 350/459/1 140/199/130
f 506/646/3 139/198/123 154/215/131
f 133/191/126 132/190/124 147/207/5 148/208/132
f 126/183/127 125/182/125 140/199/130 141/200/133
f 134/192/128 133/191/126 148/208/132 149/209/134
f 127/184/129 126/183/127 141/200/133 142/201/135
f 135/193/115 134/192/128 149/209/134 150/210/136
f 128/185/117 127/184/129 142/201/135 143/203/137
f 136/194/116 135/193/115 150/210/136 151/212/138
f 129/187/118 128/186/117 143/202/137 144/204/139
f 137/196/119 136/195/116 151/211/138 152/213/140
f 130/188/120 129/187/118 144/204/139 145/205/141
f 138/197/121 137/196/119 152/213/140 153/214/142
f 131/189/122 130/188/120 145/205/141 146/206/143
f 139/198/123 138/197/121 153/214/142 154/215/131
f 132/190/124 131/189/122 146/206/143 147/207/5
f 144/204/139 143/202/137 158/220/144 159/221/145
f 152/213/140 151/211/138 166/229/146 167/230/147
f 145/205/141 144/204/139 159/221/145 160/222/148
f 153/214/142 152/213/140 167/230/147 168/231/149
f 146/206/143 145/205/141 160/222/148 161/223/150
f 154/215/131 153/214/142 168/231/149 169/232/151
f 147/207/5 146/206/143 161/223/150 162/224/152
f 140/199/130 350/459/1 155/216/153
f 506/646/3 154/215/131 169/232/151
f 148/208/132 147/207/5 162/224/152 163/225/154
f 141/200/133 140/199/130 155/216/153 156/217/155
f 149/209/134 148/208/132 163/225/154 164/226/156
f 142/201/135 141/200/133 156/217/155 157/218/157
f 150/210/136 149/209/134 164/226/156 165/227/158
f 143/203/137 142/201/135 157/218/157 158/219/144
f 151/212/138 150/210/136 165/227/158 166/228/146
f 163/225/154 162/224/152 177/242/159 178/243/160
f 156/217/155 155/216/153 170/233/161 171/234/162
f 164/226/156 163/225/154 178/243/160 179/244/163
f 157/218/157 156/217/155 171/234/162 172/235/164
f 165/227/158 164/226/156 179/244/163 180/245/165
f 158/219/144 157/218/157 172/235/164 173/237/166
f 166/228/146 165/227/158 180/245/165 181/247/167
f 159/221/145 158/220/144 173/236/166 174/238/168
f 167/230/147 166/229/146 181/248/167 182/249/169
f 160/222/148 159/221/145 174/238/168 175/240/170
f 168/231/149 167/230/147 182/249/169 183/250/171
f 161/223/150 160/222/148 175/240/170 176/241/172
f 169/232/151 168/231/149 183/250/171 184/251/173
f 162/224/152 161/223/150 176/241/172 177/242/159
f 155/216/153 350/459/1 170/233/161
f 506/646/3 169/232/151 184/251/173
f 182/249/169 181/248/167 196/272/174 197/273/175
f 175/240/170 174/238/168 189/256/176 190/259/177
f 183/250/171 182/249/169 197/273/175 198/274/178
f 176/241/172 175/240/170 190/259/177 191/261/179
f 184/251/173 183/250/171 198/274/178 199/275/180
f 177/242/159 176/241/172 191/261/179 192/263/181
f 170/233/161 350/459/1 185/252/182
f 506/646/3 184/251/173 199/275/180
f 178/243/160 177/242/159 192/263/181 193/265/183
f 171/234/162 170/233/161 185/252/182 186/253/184
f 179/244/163 178/243/160 193/265/183 194/267/185
f 172/235/164 171/234/162 186/253/184 187/254/186
f 180/245/165 179/244/163 194/267/185 195/269/187
f 173/237/166 172/235/164 187/254/186 188/255/188
f 181/248/167 180/246/165 195/271/187 196/272/174
f 174/239/168 173/237/166 188/255/188 189/257/176
f 186/253/184 185/252/182 200/276/189 201/277/190
f 194/268/185 193/266/183 208/286/191 209/287/192
f 187/254/186 186/253/184 201/277/190 202/278/193
f 195/270/187 194/268/185 209/287/192 210/289/194
f 188/255/188 187/254/186 202/278/193 203/279/195
f 196/272/174 195/271/187 210/288/194 211/291/196
f 189/257/176 188/255/188 203/279/195 204/281/197
f 197/273/175 196/272/174 211/291/196 212/292/198
f 190/260/177 189/258/176 204/282/197 205/283/199
f 198/274/178 197/273/175 212/292/198 213/293/200
f 191/262/179 190/260/177 205/283/199 206/284/201
f 199/275/180 198/274/178 213/293/200 214/294/202
f 192/264/181 191/262/179 206/284/201 207/285/203
f 185/252/182 350/459/1 200/276/189
f 506/646/3 199/275/180 214/294/202
f 193/266/183 192/264/181 207/285/203 208/286/191
f 205/283/199 204/282/197 219/300/204 220/301/205
f 213/293/200 212/292/198 227/309/206 228/310/207
f 206/284/201 205/283/199 220/301/205 221/302/208
f 214/294/202 213/293/200 228/310/207 229/311/209
f 207/285/203 206/284/201 221/302/208 222/303/210
f 200/276/189 350/459/1 215/295/211
f 506/646/3 214/294/202 229/311/209
f 208/286/191 207/285/203 222/303/210 223/304/212
f 201/277/190 200/276/189 215/295/211 216/296/213
f 209/287/192 208/286/191 223/304/212 224/305/214
f 202/278/193 201/277/190 216/296/213 217/297/215
f 210/289/194 209/287/192 224/305/214 225/306/216
f 203/279/195 202/278/193 217/297/215 218/298/217
f 211/290/196 210/289/194 225/306/216 226/307/218
f 204/282/197 203/280/195 218/299/217 219/300/204
f 212/292/198 211/291/196 226/308/218 227/309/206
f 224/305/214 223/304/212 238/321/219 239/322/220
f 217/297/215 216/296/213 231/313/221 232/314/222
f 225/306/216 224/305/214 239/322/220 240/323/223
f 218/298/217 217/297/215 232/314/222 233/315/224
f 226/307/218 225/306/216 240/323/223 241/324/225
f 219/300/204 218/299/217 233/316/224 234/317/226
f 227/309/206 226/308/218 241/325/225 242/326/227
f 220/301/205 219/300/204 234/317/226 235/318/228
f 228/310/207 227/309/206 242/326/227 243/327/229
f 221/302/208 220/301/205 235/318/228 236/319/230
f 229/311/209 228/310/207 243/327/229 244/328/231
f 222/303/210 221/302/208 236/319/230 237/320/232
f 215/295/211 350/459/1 230/312/233
f 506/646/3 229/311/209 244/328/231
f 223/304/212 222/303/210 237/320/232 238/321/219
f 216/296/213 215/295/211 230/312/233 231/313/221
f 243/327/229 242/326/227 257/343/234 258/344/235
f 236/319/230 235/318/228 250/335/236 251/336/237
f 244/328/231 243/327/229 258/344/235 259/345/238
f 237/320/232 236/319/230 251/336/237 252/337/239
f 230/312/233 350/459/1 245/329/240
f 506/646/3 244/328/231 259/345/238
f 238/321/219 237/320/232 252/337/239 253/338/241
f 231/313/221 230/312/233 245/329/240 246/330/242
f 239/322/220 238/321/219 253/338/241 254/339/243
f 232/314/222 231/313/221 246/330/242 247/331/244
f 240/323/223 239/322/220 254/339/243 255/340/245
f 233/315/224 232/314/222 247/331/244 248/332/246
f 241/324/225 240/323/223 255/340/245 256/341/247
f 234/317/226 233/316/224 248/333/246 249/334/248
f 242/326/227 241/325/225 256/342/247 257/343/234
f 235/318/228 234/317/226 249/334/248 250/335/236
f 255/340/245 254/339/243 269/356/249 270/357/250
f 248/332/246 247/331/244 262/348/251 263/349/252
f 256/341/247 255/340/245 270/357/250 271/358/253
f 249/334/248 248/333/246 263/350/252 264/351/254
f 257/343/234 256/342/247 271/359/253 272/360/255
f 250/335/236 249/334/248 264/351/254 265/352/256
f 258/344/235 257/343/234 272/360/255 273/361/257
f 251/336/237 250/335/236 265/352/256 266/353/258
f 259/345/238 258/344/235 273/361/257 274/362/259
f 252/337/239 251/336/237 266/353/258 267/354/6
f 245/329/240 350/459/1 260/346/260
f 506/646/3 259/345/238 274/362/259
f 253/338/241 252/337/239 267/354/6 268/355/261
f 246/330/242 245/329/240 260/346/260 261/347/262
f 254/339/243 253/338/241 268/355/261 269/356/249
f 247/331/244 246/330/242 261/347/262 262/348/251
f 274/362/259 273/361/257 288/378/263 289/379/264
f 267/354/6 266/353/258 281/370/265 282/371/266
f 260/346/260 350/459/1 275/363/267
f 506/646/3 274/362/259 289/379/264
f 268/355/261 267/354/6 282/371/266 283/372/268
f 261/347/262 260/346/260 275/363/267 276/364/269
f 269/356/249 268/355/261 283/372/268 284/373/270
f 262/348/251 261/347/262 276/364/269 277/365/271
f 270/357/250 269/356/249 284/373/270 285/374/272
f 263/349/252 262/348/251 277/365/271 278/366/273
f 271/358/253 270/357/250 285/374/272 286/375/274
f 264/351/254 263/350/252 278/367/273 279/368/275
f 272/360/255 271/359/253 286/376/274 287/377/276
f 265/352/256 264/351/254 279/368/275 280/369/277
f 273/361/257 272/360/255 287/377/276 288/378/263
f 266/353/258 265/352/256 280/369/277 281/370/265
f 278/366/273 277/365/271 292/382/278 293/384/279
f 286/375/274 285/374/272 300/392/280 301/394/281
f 279/368/275 278/367/273 293/383/279 294/386/282
f 287/377/276 286/376/274 301/395/281 302/396/283
f 280/369/277 279/368/275 294/386/282 295/387/284
f 288/378/263 287/377/276 302/396/283 303/397/285
f 281/370/265 280/369/277 295/387/284 296/388/286
f 289/379/264 288/378/263 303/397/285 304/398/287
f 282/371/266 281/370/265 296/388/286 297/389/288
f 275/363/267 350/459/1 290/380/289
f 506/646/3 289/379/264 304/398/287
f 283/372/268 282/371/266 297/389/288 298/390/290
f 276/364/269 275/363/267 290/380/289 291/381/291
f 284/373/270 283/372/268 298/390/290 299/391/292
f 277/365/271 276/364/269 291/381/291 292/382/278
f 285/374/272 284/373/270 299/391/292 300/392/280
f 297/389/288 296/388/286 311/408/293 312/410/294
f 290/380/289 350/459/1 305/399/295
f 506/646/3 304/398/287 319/422/296
f 298/390/290 297/389/288 312/410/294 313/412/297
f 291/381/291 290/380/289 305/399/295 306/400/298
f 299/391/292 298/390/290 313/412/297 314/414/299
f 292/382/278 291/381/291 306/400/298 307/401/300
f 300/392/280 299/391/292 314/414/299 315/416/301
f 293/384/279 292/382/278 307/401/300 308/402/302
f 301/395/281 300/393/280 315/417/301 316/419/303
f 294/385/282 293/384/279 308/402/302 309/404/304
f 302/396/283 301/395/281 316/419/303 317/420/305
f 295/387/284 294/386/282 309/403/304 310/406/306
f 303/397/285 302/396/283 317/420/305 318/421/307
f 296/388/286 295/387/284 310/406/306 311/408/293
f 304/398/287 303/397/285 318/421/307 319/422/296
f 316/419/303 315/417/301 330/435/308 331/438/309
f 309/404/304 308/402/302 323/426/310 324/428/311
f 317/420/305 316/419/303 331/438/309 332/439/312
f 310/407/306 309/405/304 324/429/311 325/430/313
f 318/421/307 317/420/305 332/439/312 333/440/314
f 311/409/293 310/407/306 325/430/313 326/431/315
f 319/422/296 318/421/307 333/440/314 334/441/316
f 312/411/294 311/409/293 326/431/315 327/432/317
f 305/399/295 350/459/1 320/423/318
f 506/646/3 319/422/296 334/441/316
f 313/413/297 312/411/294 327/432/317 328/433/319
f 306/400/298 305/399/295 320/423/318 321/424/320
f 314/415/299 313/413/297 328/433/319 329/434/321
f 307/401/300 306/400/298 321/424/320 322/425/322
f 315/418/301 314/415/299 329/434/321 330/436/308
f 308/402/302 307/401/300 322/425/322 323/426/310
f 320/423/318 350/459/1 335/442/323
f 506/646/3 334/441/316 349/458/324
f 328/433/319 327/432/317 342/450/325 343/451/326
f 321/424/320 320/423/318 335/442/323 336/443/327
f 329/434/321 328/433/319 343/451/326 344/452/328
f 322/425/322 321/424/320 336/443/327 337/444/329
f 330/436/308 329/434/321 344/452/328 345/453/330
f 323/426/310 322/425/322 337/444/329 338/446/331
f 331/437/309 330/436/308 345/453/330 346/455/332
f 324/429/311 323/427/310 338/445/331 339/447/333
f 332/439/312 331/438/309 346/454/332 347/456/334
f 325/430/313 324/429/311 339/447/333 340/448/335
f 333/440/314 332/439/312 347/456/334 348/457/336
f 326/431/315 325/430/313 340/448/335 341/449/337
f 334/441/316 333/440/314 348/457/336 349/458/324
f 327/432/317 326/431/315 341/449/337 342/450/325
f 339/447/333 338/445/331 354/464/338 355/465/339
f 347/456/334 346/454/332 362/473/340 363/474/341
f 340/448/335 339/447/333 355/465/339 356/466/342
f 348/457/336 347/456/334 363/474/341 364/475/343
f 341/449/337 340/448/335 356/466/342 357/467/344
f 349/458/324 348/457/336 364/475/343 365/476/345
f 342/450/325 341/449/337 357/467/344 358/468/346
f 335/442/323 350/459/1 351/460/347
f 506/646/3 349/458/324 365/476/345
f 343/451/326 342/450/325 358/468/346 359/469/348
f 336/443/327 335/442/323 351/460/347 352/461/349
f 344/452/328 343/451/326 359/469/348 360/470/350
f 337/444/329 336/443/327 352/461/349 353/462/351
f 345/453/330 344/452/328 360/470/350 361/471/352
f 338/446/331 337/444/329 353/462/351 354/463/338
f 346/455/332 345/453/330 361/471/352 362/472/340
f 359/469/348 358/468/346 373/485/353 374/486/354
f 352/461/349 351/460/347 366/477/355 367/478/356
f 360/470/350 359/469/348 374/486/354 375/487/357
f 353/462/351 352/461/349 367/478/356 368/479/358
f 361/471/352 360/470/350 375/487/357 376/488/359
f 354/463/338 353/462/351 368/479/358 369/480/360
f 362/472/340 361/471/352 376/488/359 377/490/361
f 355/465/339 354/464/338 369/481/360 370/482/362
f 363/474/341 362/473/340 377/489/361 378/491/363
f 356/466/342 355/465/339 370/482/362 371/483/364
f 364/475/343 363/474/341 378/491/363 379/492/365
f 357/467/344 356/466/342 371/483/364 372/484/366
f 365/476/345 364/475/343 379/492/365 380/493/367
f 358/468/346 357/467/344 372/484/366 373/485/353
f 351/460/347 350/459/1 366/477/355
f 506/646/3 365/476/345 380/493/367
f 378/491/363 377/489/361 392/507/368 393/508/369
f 371/483/364 370/482/362 385/499/370 386/500/371
f 379/492/365 378/491/363 393/508/369 394/509/372
f 372/484/366 371/483/364 386/500/371 387/501/373
f 380/493/367 379/492/365 394/509/372 395/510/374
f 373/485/353 372/484/366 387/501/373 388/502/4
f 366/477/355 350/459/1 381/494/375
f 506/646/3 380/493/367 395/510/374
f 374/486/354 373/485/353 388/502/4 389/503/376
f 367/478/356 366/477/355 381/494/375 382/495/377
f 375/487/357 374/486/354 389/503/376 390/504/378
f 368/479/358 367/478/356 382/495/377 383/496/379
f 376/488/359 375/487/357 390/504/378 391/505/380
f 369/480/360 368/479/358 383/496/379 384/497/381
f 377/490/361 376/488/359 391/505/380 392/506/368
f 370/482/362 369/481/360 384/498/381 385/499/370
f 390/504/378 389/503/376 404/520/382 405/521/383
f 383/496/379 382/495/377 397/512/384 398/513/385
f 391/505/380 390/504/378 405/521/383 406/522/386
f 384/497/381 383/496/379 398/513/385 399/514/387
f 392/506/368 391/505/380 406/522/386 407/523/388
f 385/499/370 384/498/381 399/515/387 400/516/389
f 393/508/369 392/507/368 407/524/388 408/525/390
f 386/500/371 385/499/370 400/516/389 401/517/391
f 394/509/372 393/508/369 408/525/390 409/526/392
f 387/501/373 386/500/371 401/517/391 402/518/393
f 395/510/374 394/509/372 409/526/392 410/527/394
f 388/502/4 387/501/373 402/518/393 403/519/395
f 381/494/375 350/459/1 396/511/396
f 506/646/3 395/510/374 410/527/394
f 389/503/376 388/502/4 403/519/395 404/520/382
f 382/495/377 381/494/375 396/511/396 397/512/384
f 409/526/392 408/525/390 423/544/397 424/545/398
f 402/518/393 401/517/391 416/535/399 417/536/400
f 410/527/394 409/526/392 424/545/398 425/546/401
f 403/519/395 402/518/393 417/536/400 418/537/402
f 396/511/396 350/459/1 411/528/403
f 506/646/3 410/527/394 425/546/401
f 404/520/382 403/519/395 418/537/402 419/538/404
f 397/512/384 396/511/396 411/528/403 412/529/405
f 405/521/383 404/520/382 419/538/404 420/539/406
f 398/513/385 397/512/384 412/529/405 413/530/407
f 406/522/386 405/521/383 420/539/406 421/540/408
f 399/514/387 398/513/385 413/530/407 414/532/409
f 407/523/388 406/522/386 421/540/408 422/542/410
f 400/516/389 399/515/387 414/531/409 415/534/411
f 408/525/390 407/524/388 422/543/410 423/544/397
f 401/517/391 400/516/389 415/534/411 416/535/399
f 413/530/407 412/529/405 427/548/412 428/549/413
f 421/540/408 420/539/406 435/562/414 436/564/415
f 414/532/409 413/530/407 428/549/413 429/550/416
f 422/543/410 421/541/408 436/566/415 437/567/417
f 415/533/411 414/532/409 429/550/416 430/552/418
f 423/544/397 422/543/410 437/567/417 438/568/419
f 416/535/399 415/534/411 430/551/418 431/554/420
f 424/545/398 423/544/397 438/568/419 439/569/421
f 417/536/400 416/535/399 431/554/420 432/556/422
f 425/546/401 424/545/398 439/569/421 440/570/423
f 418/537/402 417/536/400 432/556/422 433/558/424
f 411/528/403 350/459/1 426/547/425
f 506/646/3 425/546/401 440/570/423
f 419/538/404 418/537/402 433/558/424 434/560/426
f 412/529/405 411/528/403 426/547/425 427/548/412
f 420/539/406 419/538/404 434/560/426 435/562/414
f 432/557/422 431/555/420 446/578/427 447/579/428
f 440/570/423 439/569/421 454/588/429 455/589/430
f 433/559/424 432/557/422 447/579/428 448/580/431
f 426/547/425 350/459/1 441/571/432
f 506/646/3 440/570/423 455/589/430
f 434/561/426 433/559/424 448/580/431 449/581/433
f 427/548/412 426/547/425 441/571/432 442/572/434
f 435/563/414 434/561/426 449/581/433 450/582/435
f 428/549/413 427/548/412 442/572/434 443/573/436
f 436/565/415 435/563/414 450/582/435 451/584/437
f 429/550/416 428/549/413 443/573/436 444/574/438
f 437/567/417 436/566/415 451/583/437 452/586/439
f 430/552/418 429/550/416 444/574/438 445/576/440
f 438/568/419 437/567/417 452/586/439 453/587/441
f 431/555/420 430/553/418 445/577/440 446/578/427
f 439/569/421 438/568/419 453/587/441 454/588/429
f 451/584/437 450/582/435 465/600/442 466/601/443
f 444/574/438 443/573/436 458/592/444 459/593/445
f 452/585/439 451/584/437 466/601/443 467/602/446
f 445/577/440 444/575/438 459/594/445 460/595/447
f 453/587/441 452/586/439 467/603/446 468/604/448
f 446/578/427 445/577/440 460/595/447 461/596/449
f 454/588/429 453/587/441 468/604/448 469/605/450
f 447/579/428 446/578/427 461/596/449 462/597/451
f 455/589/430 454/588/429 469/605/450 470/606/452
f 448/580/431 447/579/428 462/597/451 463/598/453
f 441/571/432 350/459/1 456/590/454
f 506/646/3 455/589/430 470/606/452
f 449/581/433 448/580/431 463/598/453 464/599/455
f 442/572/434 441/571/432 456/590/454 457/591/456
f 450/582/435 449/581/433 464/599/455 465/600/442
f 443/573/436 442/572/434 457/591/456 458/592/444
f 470/606/452 469/605/450 484/622/457 485/623/458
f 463/598/453 462/597/451 477/614/459 478/615/460
f 456/590/454 350/459/1 471/607/461
f 506/646/3 470/606/452 485/623/458
f 464/599/455 463/598/453 478/615/460 479/616/462
f 457/591/456 456/590/454 471/607/461 472/608/463
f 465/600/442 464/599/455 479/616/462 480/617/464
f 458/592/444 457/591/456 472/608/463 473/609/465
f 466/601/443 465/600/442 480/617/464 481/618/466
f 459/593/445 458/592/444 473/609/465 474/610/467
f 467/602/446 466/601/443 481/618/466 482/619/468
f 460/595/447 459/594/445 474/611/467 475/612/469
f 468/604/448 467/603/446 482/620/468 483/621/470
f 461/596/449 460/595/447 475/612/469 476/613/471
f 469/605/450 468/604/448 483/621/470 484/622/457
f 462/597/451 461/596/449 476/613/471 477/614/459
f 474/610/467 473/609/465 488/626/472 489/627/473
f 482/619/468 481/618/466 496/635/474 497/636/475
f 475/612/469 474/611/467 489/628/473 490/629/476
f 483/621/470 482/620/468 497/637/475 498/638/477
f 476/613/471 475/612/469 490/629/476 491/630/478
f 484/622/457 483/621/470 498/638/477 499/639/479
f 477/614/459 476/613/471 491/630/478 492/631/480
f 485/623/458 484/622/457 499/639/479 500/640/481
f 478/615/460 477/614/459 492/631/480 493/632/482
f 471/607/461 350/459/1 486/624/483
f 506/646/3 485/623/458 500/640/481
f 479/616/462 478/615/460 493/632/482 494/633/484
f 472/608/463 471/607/461 486/624/483 487/625/485
f 480/617/464 479/616/462 494/633/484 495/634/486
f 473/609/465 472/608/463 487/625/485 488/626/472
f 481/618/466 480/617/464 495/634/486 496/635/474
f 493/632/482 492/631/480 31/64/15 501/641/14
f 486/624/483 350/459/1 25/57/18
f 506/646/3 500/640/481 505/645/10
f 494/633/484 493/632/482 501/641/14 502/642/20
f 487/625/485 486/624/483 25/57/18 26/58/22
f 495/634/486 494/633/484 502/642/20 503/643/24
f 488/626/472 487/625/485 26/58/22 27/59/26
f 496/635/474 495/634/486 503/643/24 32/65/28
f 489/627/473 488/626/472 27/59/26 28/60/30
f 497/636/475 496/635/474 32/65/28 33/66/32
f 490/629/476 489/628/473 28/61/30 29/62/34
f 498/638/477 497/637/475 33/67/32 34/68/36
f 491/630/478 490/629/476 29/62/34 30/63/38
f 499/639/479 498/638/477 34/68/36 504/644/11
f 492/631/480 491/630/478 30/63/38 31/64/15
f 500/640/481 499/639/479 504/644/11 505/645/10
